<svg width="175" height="136" viewBox="0 0 175 136" fill="none" xmlns="http://www.w3.org/2000/svg">
<g clip-path="url(#clip0_12920_44843)">
<path d="M91.2243 71.1543H85.3392C84.6088 71.1543 84.0575 71.7069 84.0575 72.4391C84.0575 73.1712 84.6088 73.7238 85.3392 73.7238H91.2243C91.9548 73.7238 92.5061 73.1712 92.5061 72.4391C92.5061 71.7069 91.9548 71.1543 91.2243 71.1543Z" fill="#2F347F"/>
<path d="M84.9671 63.9702C84.9671 62.9617 84.1402 62.1328 83.134 62.1328C82.1279 62.1328 81.301 62.9617 81.301 63.9702C81.301 64.9786 82.1279 65.8075 83.134 65.8075C84.1402 65.8075 84.9671 64.9786 84.9671 63.9702Z" fill="#2F347F"/>
<path d="M92.8782 62.1328C91.8721 62.1328 91.0451 62.9617 91.0451 63.9702C91.0451 64.9786 91.8721 65.8075 92.8782 65.8075C93.8843 65.8075 94.7113 64.9786 94.7113 63.9702C94.7113 62.9617 93.8843 62.1328 92.8782 62.1328Z" fill="#2F347F"/>
<path d="M72.2046 68.018C72.5767 68.018 72.9351 68.018 73.4037 67.9213C74.6027 74.8286 80.474 79.8019 87.5582 79.8019C95.552 79.8019 102.071 73.2676 102.071 65.2551V64.1499C102.071 62.948 101.892 61.76 101.616 60.5581L102.898 60.0055C103.353 59.8259 103.725 59.3562 103.725 58.8036C103.725 49.2301 98.4876 43.8838 89.0191 43.7042C86.0835 41.9497 83.327 41.3142 80.9289 41.9497C77.8003 42.7786 76.2428 45.2652 76.2428 45.3619C76.1464 45.5415 76.0637 45.8178 76.0637 46.0112C72.5767 48.1249 70.9228 52.2693 70.9228 58.7207V66.6365C70.9228 67.4654 71.4741 68.018 72.2046 68.018ZM99.4937 65.2551C99.4937 71.7894 94.16 77.2324 87.5444 77.2324C81.5766 77.2324 76.5185 72.8117 75.788 66.9128C79.0958 64.6058 80.7497 59.5496 81.4802 56.5104C84.3331 58.9003 90.3974 62.7684 99.1216 61.3041C99.3973 62.3125 99.4937 63.2381 99.4937 64.2466V65.2551ZM81.7558 47.0197C82.4863 46.923 83.0376 46.2875 82.9549 45.6382C82.8584 45.0856 82.5 44.6298 81.9488 44.4364C83.6991 44.1601 85.7113 44.7127 88.013 46.0941C88.1922 46.1908 88.4678 46.2737 88.7435 46.2737C96.7373 46.2737 100.968 50.1418 101.244 57.878L100.238 58.251C88.7573 61.014 82.1417 53.2778 81.8661 52.9048C81.4939 52.5318 81.0391 52.3522 80.4878 52.4489C80.033 52.5456 79.6609 53.0015 79.5644 53.554C79.1096 56.4966 77.2627 63.6802 73.6793 65.0617V58.8036H73.5001C73.5001 50.9707 75.8845 47.5723 81.7696 47.0197H81.7558Z" fill="#2F347F"/>
<path d="M95.5382 80.6446C95.1661 80.5479 94.8077 80.5479 94.5321 80.7413C94.2564 80.9209 93.9808 81.1972 93.8843 81.4735C92.9609 84.2364 90.4801 86.0737 87.6409 86.0737C84.8017 86.0737 82.3071 84.2364 81.3975 81.4735C81.301 81.1005 81.0253 80.8242 80.7497 80.7413C80.474 80.6446 80.1019 80.5617 79.7436 80.6446C72.6181 83.145 67.1327 88.8643 64.8035 96.0894C64.7621 96.1585 64.707 96.2275 64.6794 96.3104C64.6381 96.4486 63.5217 99.7503 63.1634 103.632C63.0944 104.392 63.6595 105.069 64.4176 105.138C64.4589 105.138 64.5002 105.138 64.5416 105.138C65.2445 105.138 65.8509 104.599 65.9198 103.881C66.2368 100.344 67.2843 97.2222 67.2981 97.1946C67.2981 97.1669 67.2981 97.1255 67.2981 97.0979C69.2138 90.9365 73.7207 86.0185 79.4679 83.5871C81.0253 86.723 84.1539 88.74 87.6409 88.74C91.1278 88.74 94.2564 86.7092 95.8138 83.5871C98.8873 84.8581 101.575 86.8336 103.711 89.2926V85.535C101.368 83.3937 98.6117 81.7221 95.5382 80.6446Z" fill="#2F347F"/>
<path d="M130.725 118.856C131.486 118.856 132.103 118.237 132.103 117.474C132.103 116.711 131.486 116.093 130.725 116.093C129.963 116.093 129.346 116.711 129.346 117.474C129.346 118.237 129.963 118.856 130.725 118.856Z" fill="#ECECFE"/>
<path d="M121.077 95.3713C121.838 95.3713 122.455 94.7528 122.455 93.9899C122.455 93.2269 121.838 92.6084 121.077 92.6084C120.316 92.6084 119.699 93.2269 119.699 93.9899C119.699 94.7528 120.316 95.3713 121.077 95.3713Z" fill="#E1000F"/>
<path d="M111.429 84.3191C111.429 87.3721 113.896 89.8449 116.942 89.8449C118.596 89.8449 120.071 89.099 121.077 87.9385C121.918 86.9715 122.455 85.7144 122.455 84.3191V81.5561C122.455 78.5031 119.988 76.0303 116.942 76.0303C114.227 76.0303 111.994 77.992 111.526 80.5753C111.471 80.893 111.429 81.2108 111.429 81.5561V84.3191ZM116.942 87.082C115.426 87.082 114.186 85.8387 114.186 84.3191H119.699C119.699 85.8387 118.458 87.082 116.942 87.082ZM116.942 78.7932C118.114 78.7932 119.12 79.5392 119.52 80.5753C119.63 80.8792 119.699 81.2108 119.699 81.5561H114.186C114.186 81.2108 114.255 80.8792 114.365 80.5753C114.765 79.5392 115.757 78.7932 116.942 78.7932Z" fill="#E1000F"/>
<path d="M123.833 70.5049H110.051C107.763 70.5049 105.916 72.356 105.916 74.6493V96.7528C105.916 99.046 107.763 100.897 110.051 100.897H112.808V117.668C112.863 117.917 112.959 118.166 113.125 118.359L116.57 122.503L116.68 122.628C117.245 123.166 118.169 123.125 118.679 122.503L122.124 118.359L122.235 118.207C122.373 117.986 122.441 117.737 122.441 117.475V115.941C122.414 115.734 122.345 115.541 122.235 115.361L120.967 113.33L122.235 111.3L122.304 111.161C122.386 110.982 122.441 110.775 122.441 110.567V109.034C122.414 108.827 122.345 108.633 122.235 108.454L120.967 106.423L122.235 104.392L122.304 104.254C122.386 104.075 122.441 103.867 122.441 103.66V100.897H123.82C126.108 100.897 127.954 99.046 127.954 96.7528V74.6493C127.954 72.356 126.108 70.5049 123.82 70.5049H123.833ZM118.183 107.155L119.699 109.587V110.181L118.183 112.612L118.1 112.764C117.907 113.178 117.935 113.676 118.183 114.076L119.699 116.508V116.991L117.631 119.478L115.564 116.991V100.911H119.699V103.273L118.183 105.705L118.1 105.857C117.907 106.271 117.935 106.768 118.183 107.169V107.155ZM125.212 96.7528C125.212 97.5126 124.591 98.1342 123.833 98.1342H110.051C109.293 98.1342 108.673 97.5126 108.673 96.7528V74.6493C108.673 73.8895 109.293 73.2678 110.051 73.2678H123.833C124.591 73.2678 125.212 73.8895 125.212 74.6493V96.7528Z" fill="#E1000F"/>
<path d="M142.219 40.9267V40.1807V32.8037H139.325V40.9129C139.159 45.6652 137.547 50.1135 134.653 53.8435L136.885 55.6808L137.009 55.5289C140.248 51.3154 142.054 46.2592 142.205 40.9267H142.219Z" fill="#000091"/>
<path d="M150.116 38.7441H147.222V41.1065C147.071 45.8173 145.885 50.2794 143.68 54.3962L146.202 55.8053L146.395 55.4461C148.821 50.7767 150.103 45.4995 150.103 40.1947V38.7441H150.116Z" fill="#000091"/>
<path d="M140.772 24.9023C135.631 24.9023 131.441 29.102 131.441 34.2549V40.7892C131.29 44.0909 130.022 47.2269 127.844 49.6997L129.939 51.7028L129.994 51.6476C132.792 48.4978 134.336 44.4225 134.336 40.1952V34.2687C134.336 30.7045 137.23 27.8172 140.772 27.8172C144.314 27.8172 146.919 30.4282 147.195 33.7437H150.089C149.813 28.8257 145.734 24.9162 140.772 24.9162V24.9023Z" fill="#000091"/>
<path d="M129.029 26.0351L126.962 23.9629C124.729 26.9607 123.558 30.511 123.558 34.2686V38.8137C123.461 40.2642 123.089 41.6457 122.441 42.9166L124.95 44.3533L125.005 44.2566C125.942 42.4055 126.438 40.3195 126.438 38.2334V34.2825V33.7989C126.535 30.9946 127.417 28.3283 129.016 26.0489L129.029 26.0351Z" fill="#000091"/>
<path d="M158 34.2545C158 24.7362 150.268 17 140.786 17C137.037 17 133.495 18.1742 130.504 20.4122L132.571 22.4844C134.983 20.7852 137.809 19.9011 140.786 19.9011C148.683 19.9011 155.119 26.3387 155.119 34.2683V41.3276C155.023 44.1735 154.623 46.9917 153.92 49.7131L156.704 50.473L156.842 49.9204C157.614 46.7568 158 43.4827 158 40.1948V34.2683V34.2545Z" fill="#000091"/>
<path d="M17.3782 43.9245C18.1363 43.9245 18.7565 44.5461 18.7565 45.3059C18.7565 48.6905 19.6248 50.0305 20.562 50.9699C21.4992 51.9093 22.8361 52.7797 26.2128 52.7797C26.9708 52.7797 27.591 53.4013 27.591 54.1611C27.591 54.9209 26.9708 55.5426 26.2128 55.5426C21.7886 55.5426 19.8315 54.1473 18.6049 52.9178C17.392 51.7159 16 49.7404 16 45.3059C16 44.5461 16.6202 43.9245 17.3782 43.9245ZM51.6275 43.9245C52.3855 43.9245 53.0057 44.5461 53.0057 45.3059C53.0057 49.7404 51.6137 51.7021 50.3871 52.9316C49.1742 54.1611 47.2033 55.5564 42.7792 55.5564C42.0212 55.5564 41.4009 54.9348 41.4009 54.1749C41.4009 53.4151 42.0212 52.7935 42.7792 52.7935C46.1559 52.7935 47.4928 51.9232 48.43 50.9838C49.3672 50.0444 50.2355 48.7043 50.2355 45.3197C50.2355 44.5599 50.8557 43.9383 51.6137 43.9383L51.6275 43.9245ZM40.2019 42.4601C40.5602 42.4601 40.8772 42.5844 41.1253 42.8331C41.3872 43.0818 41.5112 43.3995 41.5112 43.7725C41.5112 43.9797 41.4836 44.1593 41.4285 44.3251C41.3734 44.4909 41.2769 44.629 41.1529 44.7533C40.257 45.6513 39.2371 46.342 38.0656 46.8255C36.8941 47.3229 35.695 47.5715 34.4822 47.5715C33.2556 47.5715 32.0427 47.3367 30.8436 46.8532C29.6446 46.3697 28.6385 45.6651 27.8253 44.7395C27.6875 44.6014 27.591 44.4356 27.5221 44.2836C27.4532 44.1317 27.4256 43.9659 27.4256 43.7863C27.4256 43.4133 27.5634 43.0956 27.8115 42.8469C28.0596 42.5982 28.3904 42.4739 28.7625 42.4739C29.0106 42.4739 29.2035 42.5292 29.3551 42.6397C29.5067 42.7502 29.6721 42.8745 29.8237 43.0265C30.4026 43.6205 31.1193 44.0902 31.9462 44.4494C32.787 44.7948 33.6277 44.9744 34.4822 44.9744C35.3918 44.9744 36.2601 44.7948 37.0871 44.4356C37.914 44.0764 38.6031 43.6067 39.1544 43.0265C39.4852 42.6673 39.8435 42.4739 40.2019 42.4739V42.4601ZM34.9921 29.9164C35.3918 29.9164 35.7226 30.0269 35.9569 30.2756C36.1912 30.5104 36.3152 30.8281 36.3152 31.215V37.5973C36.3152 38.6334 36.0534 39.4071 35.5021 39.9458C34.9646 40.4846 34.179 40.7609 33.1591 40.7609H32.9661C32.47 40.7609 32.0703 40.6504 31.7946 40.4017C31.519 40.153 31.3674 39.8215 31.3674 39.3932C31.3674 39.0341 31.4914 38.7163 31.7395 38.4677C31.9876 38.219 32.2908 38.0947 32.6629 38.0947H33.3658C33.4623 38.0947 33.5312 38.067 33.5863 38.0256C33.6415 37.9841 33.669 37.9013 33.669 37.7907V31.215C33.669 30.8281 33.7931 30.5104 34.0274 30.2756C34.2755 30.0407 34.5787 29.9164 34.9784 29.9164H34.9921ZM26.9019 29.9302C27.3705 29.9302 27.7702 30.0822 28.0734 30.3861C28.3766 30.69 28.5282 31.0768 28.5282 31.5741V34.3371C28.5282 34.8206 28.3766 35.2212 28.0734 35.5251C27.7702 35.8291 27.3843 35.981 26.9019 35.981C26.4195 35.981 26.0336 35.8291 25.7304 35.5251C25.4272 35.2212 25.2755 34.8206 25.2755 34.3371V31.5741C25.2755 31.0906 25.4272 30.69 25.7304 30.3861C26.0336 30.0822 26.4195 29.9302 26.9019 29.9302ZM42.2417 29.9302C42.7103 29.9302 43.11 30.0822 43.4132 30.3861C43.7164 30.69 43.868 31.0768 43.868 31.5741V34.3371C43.868 34.8206 43.7164 35.2212 43.4132 35.5251C43.11 35.8291 42.7241 35.981 42.2417 35.981C41.7593 35.981 41.3734 35.8291 41.0702 35.5251C40.767 35.2212 40.6154 34.8206 40.6154 34.3371V31.5741C40.6154 31.0906 40.767 30.69 41.0702 30.3861C41.3734 30.0822 41.7593 29.9302 42.2417 29.9302ZM26.2128 18.4502C26.9708 18.4502 27.591 19.0719 27.591 19.8317C27.591 20.5915 26.9708 21.2131 26.2128 21.2131C22.8361 21.2131 21.4992 22.0835 20.562 23.0229C19.6248 23.9623 18.7565 25.3023 18.7565 28.6869C18.7565 29.4467 18.1363 30.0683 17.3782 30.0683C16.6202 30.0683 16 29.4467 16 28.6869C16 24.2524 17.392 22.2907 18.6187 21.075C19.8453 19.8593 21.8024 18.4502 26.2265 18.4502H26.2128ZM42.793 18.4502C47.2171 18.4502 49.1742 19.8455 50.4009 21.075C51.6137 22.2907 53.0195 24.2662 53.0195 28.7007C53.0195 29.4605 52.3993 30.0822 51.6413 30.0822C50.8832 30.0822 50.263 29.4605 50.263 28.7007C50.263 25.3161 49.3947 23.9761 48.4575 23.0367C47.5203 22.0973 46.1834 21.2269 42.8068 21.2269C42.0487 21.2269 41.4285 20.6053 41.4285 19.8455C41.4285 19.0857 42.0487 18.464 42.8068 18.464L42.793 18.4502Z" fill="#000091"/>
</g>
<defs>
<clipPath id="clip0_12920_44843">
<rect width="142" height="106" fill="white" transform="translate(16 17)"/>
</clipPath>
</defs>
</svg>
