  <svg width="31" height="31" viewBox="0 0 31 31" fill="none" xmlns="http://www.w3.org/2000/svg">
    <path d="M30.2254 7.70654H0.77497C0.347114 7.70654 0 8.05171 0 8.47716V28.514C0 29.7887 1.04292 30.8258 2.32491 30.8258H28.6751C29.9571 30.8258 31 29.7887 31 28.514V8.47716C31 8.05171 30.6529 7.70654 30.225 7.70654H30.2254Z" fill="white"/>
    <path d="M28.6751 2.31152H2.32491C1.04292 2.31152 0 3.34898 0 4.62376V8.47684C0 8.9023 0.347114 9.24746 0.77497 9.24746H30.225C30.6529 9.24746 31 8.9023 31 8.47684V4.62376C31 3.34898 29.9571 2.31192 28.6751 2.31192V2.31152Z" fill="#FC5C65"/>
    <path d="M10.85 3.08246C10.85 3.35206 10.8191 3.6067 10.749 3.85308C10.4079 5.18611 9.19118 6.16493 7.74969 6.16493C7.32341 6.16493 6.97472 5.81819 6.97472 5.39431C6.97472 4.97043 7.32341 4.6237 7.74969 4.6237C8.3232 4.6237 8.81913 4.31553 9.09025 3.85308C9.22205 3.62953 9.29963 3.35993 9.29963 3.08246C9.29963 2.805 9.22205 2.5354 9.09025 2.31185C8.81913 1.8494 8.3228 1.54123 7.74969 1.54123C7.17657 1.54123 6.68024 1.8494 6.40912 2.31185H4.75073C5.09191 0.978816 6.30859 0 7.75008 0C9.19157 0 10.4083 0.978816 10.7494 2.31185C10.8191 2.55862 10.8504 2.81287 10.8504 3.08246H10.85Z" fill="#474F63"/>
    <path d="M18.6002 3.08246C18.6002 3.35206 18.5693 3.6067 18.4993 3.85308C18.1581 5.18611 16.9414 6.16493 15.4999 6.16493C15.0737 6.16493 14.725 5.81819 14.725 5.39431C14.725 4.97043 15.0737 4.6237 15.4999 4.6237C16.0734 4.6237 16.5694 4.31553 16.8405 3.85308C16.9723 3.62953 17.0499 3.35993 17.0499 3.08246C17.0499 2.805 16.9723 2.5354 16.8405 2.31185C16.5694 1.8494 16.073 1.54123 15.4999 1.54123C14.9268 1.54123 14.4305 1.8494 14.1594 2.31185H12.501C12.8422 0.978816 14.0588 0 15.5003 0C16.9418 0 18.1585 0.978816 18.4997 2.31185C18.5693 2.55862 18.6006 2.81287 18.6006 3.08246H18.6002Z" fill="#474F63"/>
    <path d="M26.3502 3.08246C26.3502 3.35206 26.3193 3.6067 26.2493 3.85308C25.9081 5.18611 24.6914 6.16493 23.2499 6.16493C22.8237 6.16493 22.475 5.81819 22.475 5.39431C22.475 4.97043 22.8237 4.6237 23.2499 4.6237C23.8234 4.6237 24.3194 4.31553 24.5905 3.85308C24.7223 3.62953 24.7999 3.35993 24.7999 3.08246C24.7999 2.805 24.7223 2.5354 24.5905 2.31185C24.3194 1.8494 23.823 1.54123 23.2499 1.54123C22.6768 1.54123 22.1805 1.8494 21.9094 2.31185H20.251C20.5922 0.978816 21.8088 0 23.2503 0C24.6918 0 25.9085 0.978816 26.2497 2.31185C26.3193 2.55862 26.3506 2.81287 26.3506 3.08246H26.3502Z" fill="#474F63"/>
    <path d="M7.74985 23.9458H4.64997C4.22211 23.9458 3.875 24.291 3.875 24.7164V27.7989C3.875 28.2243 4.22211 28.5695 4.64997 28.5695H7.74985C8.17771 28.5695 8.52482 28.2243 8.52482 27.7989V24.7164C8.52482 24.291 8.17771 23.9458 7.74985 23.9458Z" fill="#FC5C65"/>
    <path d="M13.95 23.9458H10.8502C10.4223 23.9458 10.0752 24.291 10.0752 24.7164V27.7989C10.0752 28.2243 10.4223 28.5695 10.8502 28.5695H13.95C14.3779 28.5695 14.725 28.2243 14.725 27.7989V24.7164C14.725 24.291 14.3779 23.9458 13.95 23.9458Z" fill="#FC5C65"/>
    <path d="M20.1498 17.7808H17.0499C16.622 17.7808 16.2749 18.1259 16.2749 18.5514V21.6338C16.2749 22.0593 16.622 22.4045 17.0499 22.4045H20.1498C20.5776 22.4045 20.9247 22.0593 20.9247 21.6338V18.5514C20.9247 18.1259 20.5776 17.7808 20.1498 17.7808Z" fill="#FC5C65"/>
    <path d="M20.1498 23.9458H17.0499C16.622 23.9458 16.2749 24.291 16.2749 24.7164V27.7989C16.2749 28.2243 16.622 28.5695 17.0499 28.5695H20.1498C20.5776 28.5695 20.9247 28.2243 20.9247 27.7989V24.7164C20.9247 24.291 20.5776 23.9458 20.1498 23.9458Z" fill="#FC5C65"/>
    <path d="M26.35 17.7808H23.2501C22.8222 17.7808 22.4751 18.1259 22.4751 18.5514V21.6338C22.4751 22.0593 22.8222 22.4045 23.2501 22.4045H26.35C26.7778 22.4045 27.1249 22.0593 27.1249 21.6338V18.5514C27.1249 18.1259 26.7778 17.7808 26.35 17.7808Z" fill="#FC5C65"/>
    <path d="M20.1498 11.6152H17.0499C16.622 11.6152 16.2749 11.9604 16.2749 12.3858V15.4683C16.2749 15.8938 16.622 16.2389 17.0499 16.2389H20.1498C20.5776 16.2389 20.9247 15.8938 20.9247 15.4683V12.3858C20.9247 11.9604 20.5776 11.6152 20.1498 11.6152Z" fill="#FC5C65"/>
    <path d="M26.35 11.6152H23.2501C22.8222 11.6152 22.4751 11.9604 22.4751 12.3858V15.4683C22.4751 15.8938 22.8222 16.2389 23.2501 16.2389H26.35C26.7778 16.2389 27.1249 15.8938 27.1249 15.4683V12.3858C27.1249 11.9604 26.7778 11.6152 26.35 11.6152Z" fill="#FC5C65"/>
    <path d="M26.35 23.9458H23.2501C22.8222 23.9458 22.4751 24.291 22.4751 24.7164V27.7989C22.4751 28.2243 22.8222 28.5695 23.2501 28.5695H26.35C26.7778 28.5695 27.1249 28.2243 27.1249 27.7989V24.7164C27.1249 24.291 26.7778 23.9458 26.35 23.9458Z" fill="#FC5C65"/>
    <path d="M12.9448 11.6152H5.65465C4.67164 11.6152 3.87476 12.4076 3.87476 13.3851V20.6344C3.87476 21.6118 4.67164 22.4043 5.65465 22.4043H12.9448C13.9278 22.4043 14.7247 21.6118 14.7247 20.6344V13.3851C14.7247 12.4076 13.9278 11.6152 12.9448 11.6152Z" fill="#000091"/>
    <path d="M9.90021 18.2749C9.45414 18.7165 9.01837 19.1762 8.56281 19.6091C8.24934 19.9071 7.90302 19.9897 7.55115 19.6851C7.20523 19.3856 6.89176 19.0026 6.5482 18.696C6.2846 18.3875 5.91335 18.1108 5.65885 17.8022C5.15302 17.1891 5.97944 16.2775 6.68832 16.925C7.14744 17.3441 7.56817 17.8278 8.02373 18.2533L8.04313 18.2647L8.10923 18.1608C9.30889 16.9726 10.4923 15.7667 11.6979 14.5844C11.7854 14.4986 11.8792 14.3947 11.973 14.3191C12.6751 13.7563 13.4822 14.6718 12.8948 15.3046C11.8994 16.2972 10.8992 17.2855 9.90021 18.2749Z" fill="white"/>
  </svg>