<svg width="200" height="51" viewBox="0 0 200 51" fill="none" xmlns="http://www.w3.org/2000/svg">
  <g clip-path="url(#clip0_371_6521)">
  <path d="M50.506 12.75H1.78214C1.07428 12.75 0.5 13.3211 0.5 14.0249V47.1745C0.5 49.2836 2.22545 50.9993 4.34642 50.9993H47.9411C50.0621 50.9993 51.7875 49.2836 51.7875 47.1745V14.0249C51.7875 13.3211 51.2132 12.75 50.5054 12.75H50.506Z" fill="white"/>
  <path d="M47.9411 3.82471H4.34642C2.22545 3.82471 0.5 5.54112 0.5 7.65016V14.0248C0.5 14.7287 1.07428 15.2998 1.78214 15.2998H50.5054C51.2132 15.2998 51.7875 14.7287 51.7875 14.0248V7.65016C51.7875 5.54112 50.0621 3.82536 47.9411 3.82536V3.82471Z" fill="#FC5C65"/>
  <path d="M18.4507 5.09974C18.4507 5.54577 18.3996 5.96706 18.2837 6.37467C17.7192 8.58009 15.7063 10.1995 13.3214 10.1995C12.6162 10.1995 12.0393 9.62582 12.0393 8.92454C12.0393 8.22326 12.6162 7.64961 13.3214 7.64961C14.2703 7.64961 15.0908 7.13977 15.5393 6.37467C15.7574 6.00483 15.8857 5.55879 15.8857 5.09974C15.8857 4.64068 15.7574 4.19465 15.5393 3.8248C15.0908 3.05971 14.2696 2.54987 13.3214 2.54987C12.3733 2.54987 11.5521 3.05971 11.1036 3.8248H8.35986C8.92432 1.61939 10.9372 0 13.3221 0C15.707 0 17.7199 1.61939 18.2843 3.8248C18.3996 4.23307 18.4513 4.65371 18.4513 5.09974H18.4507Z" fill="#474F63"/>
  <path d="M31.2727 5.09974C31.2727 5.54577 31.2216 5.96706 31.1057 6.37467C30.5412 8.58009 28.5283 10.1995 26.1435 10.1995C25.4382 10.1995 24.8613 9.62582 24.8613 8.92454C24.8613 8.22326 25.4382 7.64961 26.1435 7.64961C27.0923 7.64961 27.9128 7.13977 28.3613 6.37467C28.5794 6.00483 28.7077 5.55879 28.7077 5.09974C28.7077 4.64068 28.5794 4.19465 28.3613 3.8248C27.9128 3.05971 27.0916 2.54987 26.1435 2.54987C25.1953 2.54987 24.3741 3.05971 23.9256 3.8248H21.1819C21.7463 1.61939 23.7593 0 26.1441 0C28.529 0 30.5419 1.61939 31.1063 3.8248C31.2216 4.23307 31.2733 4.65371 31.2733 5.09974H31.2727Z" fill="#474F63"/>
  <path d="M44.0947 5.09974C44.0947 5.54577 44.0436 5.96706 43.9277 6.37467C43.3633 8.58009 41.3503 10.1995 38.9655 10.1995C38.2602 10.1995 37.6833 9.62582 37.6833 8.92454C37.6833 8.22326 38.2602 7.64961 38.9655 7.64961C39.9143 7.64961 40.7348 7.13977 41.1834 6.37467C41.4014 6.00483 41.5298 5.55879 41.5298 5.09974C41.5298 4.64068 41.4014 4.19465 41.1834 3.8248C40.7348 3.05971 39.9137 2.54987 38.9655 2.54987C38.0173 2.54987 37.1962 3.05971 36.7476 3.8248H34.0039C34.5684 1.61939 36.5813 0 38.9661 0C41.351 0 43.3639 1.61939 43.9284 3.8248C44.0436 4.23307 44.0953 4.65371 44.0953 5.09974H44.0947Z" fill="#474F63"/>
  <path d="M13.3221 39.6177H8.19352C7.48565 39.6177 6.91138 40.1887 6.91138 40.8926V45.9924C6.91138 46.6962 7.48565 47.2673 8.19352 47.2673H13.3221C14.0299 47.2673 14.6042 46.6962 14.6042 45.9924V40.8926C14.6042 40.1887 14.0299 39.6177 13.3221 39.6177Z" fill="#FC5C65"/>
  <path d="M23.5796 39.6177H18.4511C17.7432 39.6177 17.1689 40.1887 17.1689 40.8926V45.9924C17.1689 46.6962 17.7432 47.2673 18.4511 47.2673H23.5796C24.2875 47.2673 24.8618 46.6962 24.8618 45.9924V40.8926C24.8618 40.1887 24.2875 39.6177 23.5796 39.6177Z" fill="#FC5C65"/>
  <path d="M33.837 29.4175H28.7084C28.0005 29.4175 27.4263 29.9885 27.4263 30.6924V35.7922C27.4263 36.496 28.0005 37.0671 28.7084 37.0671H33.837C34.5448 37.0671 35.1191 36.496 35.1191 35.7922V30.6924C35.1191 29.9885 34.5448 29.4175 33.837 29.4175Z" fill="#FC5C65"/>
  <path d="M33.837 39.6177H28.7084C28.0005 39.6177 27.4263 40.1887 27.4263 40.8926V45.9924C27.4263 46.6962 28.0005 47.2673 28.7084 47.2673H33.837C34.5448 47.2673 35.1191 46.6962 35.1191 45.9924V40.8926C35.1191 40.1887 34.5448 39.6177 33.837 39.6177Z" fill="#FC5C65"/>
  <path d="M44.0945 29.4175H38.966C38.2581 29.4175 37.6838 29.9885 37.6838 30.6924V35.7922C37.6838 36.496 38.2581 37.0671 38.966 37.0671H44.0945C44.8024 37.0671 45.3767 36.496 45.3767 35.7922V30.6924C45.3767 29.9885 44.8024 29.4175 44.0945 29.4175Z" fill="#FC5C65"/>
  <path d="M33.837 19.2173H28.7084C28.0005 19.2173 27.4263 19.7883 27.4263 20.4922V25.592C27.4263 26.2958 28.0005 26.8669 28.7084 26.8669H33.837C34.5448 26.8669 35.1191 26.2958 35.1191 25.592V20.4922C35.1191 19.7883 34.5448 19.2173 33.837 19.2173Z" fill="#FC5C65"/>
  <path d="M44.0945 19.2173H38.966C38.2581 19.2173 37.6838 19.7883 37.6838 20.4922V25.592C37.6838 26.2958 38.2581 26.8669 38.966 26.8669H44.0945C44.8024 26.8669 45.3767 26.2958 45.3767 25.592V20.4922C45.3767 19.7883 44.8024 19.2173 44.0945 19.2173Z" fill="#FC5C65"/>
  <path d="M44.0945 39.6177H38.966C38.2581 39.6177 37.6838 40.1887 37.6838 40.8926V45.9924C37.6838 46.6962 38.2581 47.2673 38.966 47.2673H44.0945C44.8024 47.2673 45.3767 46.6962 45.3767 45.9924V40.8926C45.3767 40.1887 44.8024 39.6177 44.0945 39.6177Z" fill="#FC5C65"/>
  <path d="M21.9165 19.2173H9.85537C8.22904 19.2173 6.91064 20.5283 6.91064 22.1455V34.1388C6.91064 35.756 8.22904 37.067 9.85537 37.067H21.9165C23.5428 37.067 24.8612 35.756 24.8612 34.1388V22.1455C24.8612 20.5283 23.5428 19.2173 21.9165 19.2173Z" fill="#000091"/>
  <path d="M16.8798 30.2355C16.1418 30.9661 15.4208 31.7266 14.6671 32.4428C14.1485 32.9358 13.5755 33.0725 12.9934 32.5685C12.4211 32.073 11.9025 31.4394 11.3341 30.9322C10.898 30.4217 10.2837 29.9639 9.86269 29.4535C9.02583 28.439 10.3931 26.9309 11.5659 28.0021C12.3255 28.6955 13.0215 29.4958 13.7752 30.1997L13.8073 30.2185L13.9167 30.0466C15.9014 28.0808 17.8594 26.0857 19.8539 24.1297C19.9987 23.9878 20.1539 23.8159 20.309 23.6909C21.4707 22.7597 22.8059 24.2743 21.8341 25.3213C20.1873 26.9635 18.5325 28.5985 16.8798 30.2355Z" fill="white"/>
  <path d="M65.7849 2.34277H70.5527C73.9833 2.34277 76.1003 4.09304 76.1003 6.97304C76.1003 8.85614 75.1868 10.2515 73.5825 10.9828L78.4616 17.8504H74.7409L70.5749 11.5812H68.9484V17.8504H65.7849V2.34277ZM68.9484 4.95646V8.96618H70.7308C72.0673 8.96618 72.8472 8.19067 72.8472 6.92811C72.8472 5.7541 72.0673 4.95646 70.7308 4.95646H68.9484Z" fill="#FC5C65"/>
  <path d="M85.4785 18.293C81.4907 18.293 79.2407 15.5237 79.2407 12.2674C79.2407 9.011 81.3348 6.2417 85.011 6.2417C88.1299 6.2417 90.1795 8.34619 90.1795 11.2705C90.1795 11.891 90.0905 12.4666 90.0014 12.8436H82.137C82.4042 14.926 83.6968 15.7679 85.4563 15.7679C86.6815 15.7679 87.7508 15.2359 88.3526 14.4389L90.3799 16.0342C89.3328 17.4296 87.5949 18.2937 85.4785 18.2937V18.293ZM82.226 10.8049H87.3946C87.35 9.67517 86.5256 8.54544 84.9442 8.54544C83.4957 8.54544 82.5377 9.34309 82.226 10.8049Z" fill="#000091"/>
  <path d="M92.9416 6.68448H95.7711V7.57068C96.551 6.81731 97.598 6.2417 99.0903 6.2417C101.518 6.2417 103.457 7.90341 103.457 11.204V17.8502H100.605V11.3147C100.605 9.83079 99.7583 8.90031 98.3772 8.90031C96.9962 8.90031 96.1941 9.85293 95.7704 10.562V17.8502H92.9409V6.68448H92.9416Z" fill="#000091"/>
  <path d="M111.567 6.241C113.081 6.241 114.174 6.70592 115.043 7.56998V1.23438H117.894V17.8496H115.043V16.9633C114.174 17.8274 113.082 18.2923 111.567 18.2923C108.024 18.2923 105.863 15.523 105.863 12.2667C105.863 9.01031 108.024 6.241 111.567 6.241ZM111.968 15.6344C113.237 15.6344 114.284 15.1024 115.042 14.0833V10.45C114.284 9.43094 113.237 8.89896 111.968 8.89896C110.052 8.89896 108.826 10.3165 108.826 12.266C108.826 14.2155 110.052 15.6331 111.968 15.6331V15.6344Z" fill="#000091"/>
  <path d="M126.716 18.293C122.728 18.293 120.478 15.5237 120.478 12.2674C120.478 9.011 122.572 6.2417 126.249 6.2417C129.367 6.2417 131.417 8.34619 131.417 11.2705C131.417 11.891 131.328 12.4666 131.239 12.8436H123.375C123.642 14.926 124.934 15.7679 126.694 15.7679C127.919 15.7679 128.988 15.2359 129.59 14.4389L131.617 16.0342C130.57 17.4296 128.832 18.2937 126.716 18.2937V18.293ZM123.464 10.8049H128.632C128.588 9.67517 127.763 8.54544 126.182 8.54544C124.733 8.54544 123.775 9.34309 123.464 10.8049Z" fill="#000091"/>
  <path d="M133.578 15.3246L139.281 9.21035H133.756V6.68457H142.823V9.21035L137.12 15.3246H142.979V17.8503H133.577V15.3246H133.578Z" fill="#000091"/>
  <path d="M150.688 10.8271V13.5522H144.672V10.8271H150.688Z" fill="#000091"/>
  <path d="M154.029 6.68457L156.948 14.6597L159.844 6.68457H162.896L158.797 17.8497H155.076L150.999 6.68457H154.029Z" fill="#000091"/>
  <path d="M176.04 12.2674C176.04 15.6123 173.545 18.293 169.892 18.293C166.238 18.293 163.743 15.6123 163.743 12.2674C163.743 8.92245 166.238 6.2417 169.892 6.2417C173.546 6.2417 176.04 8.92245 176.04 12.2674ZM173.1 12.2674C173.1 10.3178 171.741 8.90031 169.936 8.90031C168.132 8.90031 166.684 10.3178 166.684 12.2674C166.684 14.2169 168.065 15.6344 169.936 15.6344C171.808 15.6344 173.1 14.1947 173.1 12.2674Z" fill="#000091"/>
  <path d="M186.021 6.68457H188.873V12.8873C188.873 16.2323 186.912 18.2925 183.615 18.2925C180.318 18.2925 178.38 16.2323 178.38 12.8873V6.68457H181.232V13.0202C181.232 14.6376 182.079 15.6345 183.638 15.6345C185.198 15.6345 186.022 14.6376 186.022 13.0202V6.68457H186.021Z" fill="#000091"/>
  <path d="M192.816 14.549C193.507 15.413 194.331 16.0329 195.401 16.0329C196.314 16.0329 196.782 15.5009 196.782 14.8368C196.782 12.8872 191.413 13.6185 191.413 9.69731C191.413 7.72565 193.084 6.2417 195.423 6.2417C197.139 6.2417 198.698 7.06149 199.5 8.14694L197.628 9.78651C197.049 9.07742 196.314 8.50181 195.445 8.50181C194.576 8.50181 194.131 8.98952 194.131 9.56512C194.131 11.4704 199.501 10.8055 199.501 14.6603C199.456 17.0083 197.562 18.2937 195.446 18.2937C193.441 18.2937 192.015 17.496 190.946 16.2335L192.818 14.5496L192.816 14.549Z" fill="#000091"/>
  <path d="M81.001 39.9612C81.001 44.3916 77.6372 48.1578 72.7359 48.1578C67.8346 48.1578 64.4485 44.3916 64.4485 39.9612C64.4485 35.5309 67.8123 31.7646 72.7359 31.7646C77.6595 31.7646 81.001 35.5309 81.001 39.9612ZM77.7485 39.9612C77.7485 36.9927 75.6544 34.7111 72.7359 34.7111C69.8174 34.7111 67.701 36.9927 67.701 39.9612C67.701 42.9298 69.7951 45.2114 72.7359 45.2114C75.6767 45.2114 77.7485 42.9298 77.7485 39.9612Z" fill="#FC5C65"/>
  <path d="M84.5428 36.55V35.376C84.5428 33.0058 86.1249 31.1006 88.9315 31.1006C89.9562 31.1006 90.8252 31.3441 91.5383 31.7211L90.3354 34.0691C90.0014 33.8256 89.5555 33.6264 88.9766 33.6264C88.0186 33.6264 87.3946 34.2912 87.3946 35.3102V36.5506H90.8252V39.0764H87.3946V47.7164H84.5428V39.0764H82.4487V36.5506H84.5428V36.55Z" fill="#000091"/>
  <path d="M94.0333 36.55V35.376C94.0333 33.0058 95.6154 31.1006 98.4219 31.1006C99.4467 31.1006 100.316 31.3441 101.029 31.7211L99.8259 34.0691C99.4919 33.8256 99.046 33.6264 98.4671 33.6264C97.5091 33.6264 96.8851 34.2912 96.8851 35.3102V36.5506H100.316V39.0764H96.8851V47.7164H94.0333V39.0764H91.9392V36.5506H94.0333V36.55Z" fill="#000091"/>
  <path d="M102.008 32.7617C102.008 31.7648 102.855 30.9229 103.858 30.9229C104.86 30.9229 105.684 31.7648 105.684 32.7617C105.684 33.7586 104.86 34.6005 103.858 34.6005C102.855 34.6005 102.008 33.7586 102.008 32.7617ZM102.432 36.55H105.261V47.7151H102.432V36.55Z" fill="#000091"/>
  <path d="M116.579 44.2154L118.784 45.8993C117.737 47.2725 116.088 48.1587 114.039 48.1587C110.162 48.1587 107.845 45.3894 107.845 42.1331C107.845 38.8767 110.162 36.1074 114.039 36.1074C116.088 36.1074 117.737 36.9936 118.784 38.3669L116.579 40.0507C116.044 39.2752 115.153 38.766 113.994 38.766C112.145 38.766 110.786 40.1836 110.786 42.1331C110.786 44.0826 112.145 45.5001 114.039 45.5001C115.153 45.5001 116.044 44.9909 116.579 44.2154Z" fill="#000091"/>
  <path d="M120.477 32.7617C120.477 31.7648 121.323 30.9229 122.326 30.9229C123.329 30.9229 124.153 31.7648 124.153 32.7617C124.153 33.7586 123.329 34.6005 122.326 34.6005C121.323 34.6005 120.477 33.7586 120.477 32.7617ZM120.9 36.55H123.729V47.7151H120.9V36.55Z" fill="#000091"/>
  <path d="M132.552 48.1587C128.564 48.1587 126.314 45.3894 126.314 42.1331C126.314 38.8767 128.408 36.1074 132.084 36.1074C135.203 36.1074 137.253 38.2119 137.253 41.1362C137.253 41.7567 137.164 42.3323 137.075 42.7093H129.21C129.477 44.7917 130.77 45.6336 132.53 45.6336C133.755 45.6336 134.824 45.1023 135.426 44.3046L137.453 45.8999C136.406 47.2953 134.668 48.1594 132.552 48.1594V48.1587ZM129.299 40.6706H134.468C134.423 39.5409 133.599 38.4112 132.017 38.4112C130.569 38.4112 129.611 39.2088 129.299 40.6706Z" fill="#000091"/>
  <path d="M140.015 31.1001H142.844V47.7153H140.015V31.1001Z" fill="#000091"/>
  </g>
  <defs>
  <clipPath id="clip0_371_6521">
  <rect width="199" height="51" fill="white" transform="translate(0.5)"/>
  </clipPath>
  </defs>
</svg>