<svg width="100" height="100" viewBox="0 0 100 100" fill="none" xmlns="http://www.w3.org/2000/svg">
<path fill-rule="evenodd" clip-rule="evenodd" d="M85 16.25C84.3107 16.25 83.75 15.6893 83.75 15C83.75 14.3107 84.3107 13.75 85 13.75C85.6893 13.75 86.25 14.3107 86.25 15C86.25 15.6893 85.6893 16.25 85 16.25Z" fill="#ECECFE"/>
<path fill-rule="evenodd" clip-rule="evenodd" d="M51.25 95C50.5607 95 50 94.4393 50 93.75C50 93.0607 50.5607 92.5 51.25 92.5C51.9393 92.5 52.5 93.0607 52.5 93.75C52.5 94.4393 51.9393 95 51.25 95Z" fill="#ECECFE"/>
<path fill-rule="evenodd" clip-rule="evenodd" d="M18.75 12.5C18.0607 12.5 17.5 11.9393 17.5 11.25C17.5 10.5607 18.0607 10 18.75 10C19.4393 10 20 10.5607 20 11.25C20 11.9393 19.4393 12.5 18.75 12.5Z" fill="#ECECFE"/>
<path d="M67.6321 50.691C68.0685 49.8182 69.2715 49.7722 69.7886 50.5532L69.8682 50.691L84.8682 80.691C85.2619 81.4784 84.7402 82.3975 83.8941 82.492L83.7501 82.5H78.7501C78.0598 82.5 77.5001 81.9404 77.5001 81.25C77.5001 80.609 77.9827 80.0806 78.6044 80.0084L78.7501 80H81.7264L68.7501 54.045L55.7726 80H73.7501C74.3912 80 74.9195 80.4825 74.9917 81.1042L75.0001 81.25C75.0001 81.891 74.5176 82.4194 73.8959 82.4916L73.7501 82.5H53.7501C52.8698 82.5 52.2811 81.6223 52.5749 80.8233L52.6321 80.691L67.6321 50.691Z" fill="#E1000F"/>
<path d="M68.7501 62.5C69.4405 62.5 70.0001 63.0596 70.0001 63.75V71.25C70.0001 71.9404 69.4405 72.5 68.7501 72.5C68.0598 72.5 67.5001 71.9404 67.5001 71.25V63.75C67.5001 63.0596 68.0598 62.5 68.7501 62.5Z" fill="#E1000F"/>
<path d="M70.0001 76.25C70.0001 75.5596 69.4405 75 68.7501 75C68.0598 75 67.5001 75.5596 67.5001 76.25C67.5001 76.9404 68.0598 77.5 68.7501 77.5C69.4405 77.5 70.0001 76.9404 70.0001 76.25Z" fill="#E1000F"/>
<path d="M84.9916 23.6042C84.9194 22.9826 84.391 22.5 83.75 22.5H16.25L16.1042 22.5084C15.4826 22.5806 15 23.109 15 23.75V81.25L15.0084 81.3958C15.0806 82.0175 15.609 82.5 16.25 82.5H46.25L46.3958 82.4916C47.0175 82.4194 47.5 81.891 47.5 81.25L47.4916 81.1042C47.4194 80.4825 46.891 80 46.25 80H17.5V35H63.75L63.8958 34.9916C64.5175 34.9194 65 34.391 65 33.75C65 33.0596 64.4404 32.5 63.75 32.5H17.5V25H82.5V32.5H71.25L71.1042 32.5084C70.4825 32.5806 70 33.109 70 33.75C70 34.4404 70.5596 35 71.25 35H82.5V66.25L82.5084 66.3958C82.5806 67.0175 83.109 67.5 83.75 67.5C84.4404 67.5 85 66.9404 85 66.25V23.75L84.9916 23.6042Z" fill="#000091"/>
<path d="M21.25 30C20.5607 30 20 29.4393 20 28.75C20 28.0607 20.5607 27.5 21.25 27.5C21.9393 27.5 22.5 28.0607 22.5 28.75C22.5 29.4393 21.9393 30 21.25 30Z" fill="#000091"/>
<path d="M25 28.75C25 29.4393 25.5607 30 26.25 30C26.9393 30 27.5 29.4393 27.5 28.75C27.5 28.0607 26.9393 27.5 26.25 27.5C25.5607 27.5 25 28.0607 25 28.75Z" fill="#000091"/>
<path d="M31.25 30C30.5607 30 30 29.4393 30 28.75C30 28.0607 30.5607 27.5 31.25 27.5C31.9393 27.5 32.5 28.0607 32.5 28.75C32.5 29.4393 31.9393 30 31.25 30Z" fill="#000091"/>
<path d="M78.75 27.5C79.4404 27.5 80 28.0596 80 28.75C80 29.391 79.5175 29.9194 78.8958 29.9916L78.75 30H41.25C40.5596 30 40 29.4404 40 28.75C40 28.109 40.4825 27.5806 41.1042 27.5084L41.25 27.5H78.75Z" fill="#000091"/>
<path d="M57.5 43.75C57.5 43.0596 56.9404 42.5 56.25 42.5H26.25L26.1042 42.5084C25.4825 42.5806 25 43.109 25 43.75C25 44.4404 25.5596 45 26.25 45H56.25L56.3958 44.9916C57.0175 44.9194 57.5 44.391 57.5 43.75Z" fill="#000091"/>
<path d="M51.25 50C51.9404 50 52.5 50.5596 52.5 51.25C52.5 51.891 52.0175 52.4194 51.3958 52.4916L51.25 52.5H26.25C25.5596 52.5 25 51.9404 25 51.25C25 50.609 25.4825 50.0806 26.1042 50.0084L26.25 50H51.25Z" fill="#000091"/>
<path d="M45 58.75C45 58.0596 44.4404 57.5 43.75 57.5H26.25L26.1042 57.5084C25.4825 57.5806 25 58.109 25 58.75C25 59.4404 25.5596 60 26.25 60H43.75L43.8958 59.9916C44.5175 59.9194 45 59.391 45 58.75Z" fill="#000091"/>
</svg>
