<svg width="60" height="60" viewBox="0 0 60 60" fill="none" xmlns="http://www.w3.org/2000/svg">
<path fill-rule="evenodd" clip-rule="evenodd" d="M51 9.75C50.5864 9.75 50.25 9.41355 50.25 9C50.25 8.58641 50.5864 8.25 51 8.25C51.4136 8.25 51.75 8.58641 51.75 9C51.75 9.41355 51.4136 9.75 51 9.75ZM30.75 57C30.3365 57 30 56.6636 30 56.25C30 55.8364 30.3365 55.5 30.75 55.5C31.1635 55.5 31.5 55.8364 31.5 56.25C31.5 56.6636 31.1635 57 30.75 57ZM11.25 7.5C10.8364 7.5 10.5 7.16355 10.5 6.75C10.5 6.33641 10.8364 6 11.25 6C11.6636 6 12 6.33641 12 6.75C12 7.16355 11.6636 7.5 11.25 7.5Z" fill="#ECECFE"/>
<path fill-rule="evenodd" clip-rule="evenodd" d="M39.75 33C40.1642 33 40.5 33.3358 40.5 33.75V41.25C40.5 41.6642 40.1642 42 39.75 42H32.25C31.8358 42 31.5 41.6642 31.5 41.25V33.75C31.5 33.3358 31.8358 33 32.25 33H39.75ZM35.25 38.25H33V40.5H35.25V38.25ZM39 38.25H36.75V40.5H39V38.25ZM35.25 34.5H33V36.75H35.25V34.5ZM39 34.5H36.75V36.75H39V34.5ZM33.75 24C34.1642 24 34.5 24.3358 34.5 24.75C34.5 25.1642 34.1642 25.5 33.75 25.5H26.25C25.8358 25.5 25.5 25.1642 25.5 24.75C25.5 24.3358 25.8358 24 26.25 24H33.75Z" fill="#E1000F"/>
<path fill-rule="evenodd" clip-rule="evenodd" d="M21.75 13.5C22.1642 13.5 22.5 13.8358 22.5 14.25C22.5 14.6642 22.1642 15 21.75 15H16.5V16.5H18.75C19.1346 16.5 19.4516 16.7895 19.495 17.1625L19.5 17.25C19.5 17.6642 19.1642 18 18.75 18H18V20.0415L29.6701 14.3265L29.7509 14.2925C29.7634 14.2883 29.7699 14.2861 29.7764 14.2841C29.8504 14.2608 29.9255 14.2498 29.9998 14.2498C30.0745 14.2498 30.1496 14.2608 30.2231 14.2838L30.2333 14.2872L30.2491 14.2925L30.3299 14.3265L48.7049 23.3265C49.0693 23.505 49.2257 23.9409 49.0578 24.3104L47.1828 28.4354C47.0047 28.8272 46.534 28.9891 46.1526 28.7897L45 28.1873V31.8529C45 32.2672 44.6642 32.6029 44.25 32.6029C43.8358 32.6029 43.5 32.2672 43.5 31.8529V27.4867L30 20.3483L16.5 27.486V45H19.5V33.75C19.5 33.3358 19.8358 33 20.25 33H27.75C28.1642 33 28.5 33.3358 28.5 33.75V45H36.75C37.1642 45 37.5 45.3358 37.5 45.75C37.5 46.1642 37.1642 46.5 36.75 46.5H6.75C6.33579 46.5 6 46.1642 6 45.75C6 45.3358 6.33579 45 6.75 45H9L9.00026 43.4528C7.0608 43.1964 6 41.9014 6 39.75C6 37.604 7.03109 34.5108 9.07918 30.4146L9.08925 30.3945L9.1095 30.3592L9.13651 30.3184C9.14501 30.3062 9.15396 30.2942 9.1633 30.2825C9.17258 30.2709 9.18218 30.2595 9.19208 30.2485C9.20072 30.2389 9.2099 30.2292 9.21937 30.2197C9.22915 30.2099 9.23885 30.2007 9.24877 30.1918C9.25952 30.1822 9.27088 30.1726 9.28257 30.1633L9.31843 30.1364L9.3585 30.1095L9.41459 30.0792L9.42343 30.0748C9.43949 30.067 9.45597 30.0598 9.47268 30.0531L9.4879 30.0472L9.50331 30.0416C9.51551 30.0375 9.52746 30.0337 9.53949 30.0301C9.55593 30.0252 9.57254 30.0209 9.5892 30.0173L9.604 30.0143C9.65054 30.0049 9.69725 30.0002 9.74369 29.9999H9.75631C9.78403 30.0001 9.81184 30.0018 9.83962 30.0052L9.896 30.0143L9.91088 30.0174C9.92746 30.0209 9.94407 30.0252 9.9606 30.03L9.9785 30.0356L9.99633 30.0416C10.007 30.0452 10.0173 30.0491 10.0275 30.0532C10.044 30.0598 10.0605 30.067 10.0767 30.0749L10.0854 30.0792L10.14 30.1095L10.1816 30.1365C10.1938 30.145 10.2058 30.154 10.2175 30.1633C10.2291 30.1726 10.2405 30.1822 10.2515 30.1921C10.2611 30.2007 10.2708 30.2099 10.2803 30.2194C10.2901 30.2292 10.2993 30.2389 10.3082 30.2488C10.3178 30.2595 10.3274 30.2709 10.3367 30.2826L10.3636 30.3184L10.3897 30.3585L10.41 30.3945L10.4208 30.4146C12.4689 34.5108 13.5 37.604 13.5 39.75C13.5 41.9011 12.4395 43.1961 10.5005 43.4527L10.5 45H15V28.1873L13.8474 28.7897C13.466 28.9891 12.9953 28.8272 12.8172 28.4354L10.9422 24.3104C10.7743 23.9409 10.9307 23.505 11.2951 23.3265L16.6517 20.7023C16.5565 20.5766 16.5 20.4199 16.5 20.25V18H15.75C15.3358 18 15 17.6642 15 17.25V14.25C15 13.8358 15.3358 13.5 15.75 13.5H21.75ZM48.7943 34.5013C48.9712 34.5117 49.1451 34.5845 49.2803 34.7197C50.4365 35.8759 51 37.5663 51 39.75C51 41.6901 50.5311 42.9739 49.5008 43.3699L49.5 45H51.75C52.1642 45 52.5 45.3358 52.5 45.75C52.5 46.1642 52.1642 46.5 51.75 46.5H41.25C40.8358 46.5 40.5 46.1642 40.5 45.75C40.5 45.3358 40.8358 45 41.25 45H43.5V36.75C43.5 36.3358 43.8358 36 44.25 36C44.6642 36 45 36.3358 45 36.75V45H48L48 43.3702C46.9691 42.9745 46.5 41.6906 46.5 39.75C46.5 37.5663 47.0635 35.8759 48.2197 34.7197C48.3549 34.5845 48.5288 34.5117 48.7057 34.5013H48.7943ZM27 34.5H21V45H27V34.5ZM48.7505 36.4592L48.7243 36.5012C48.2456 37.3106 48 38.3878 48 39.75C48 41.3259 48.2825 41.9515 48.6993 41.9973L48.75 42L48.8007 41.9973C49.2175 41.9515 49.5 41.3259 49.5 39.75C49.5 38.3641 49.2458 37.2732 48.7505 36.4592ZM9.74991 32.47L9.60124 32.791C8.19755 35.8459 7.5 38.1769 7.5 39.75C7.5 41.3358 8.16421 42 9.75 42L9.90552 41.9978C11.3793 41.9547 12 41.2829 12 39.75C12 38.1222 11.2531 35.683 9.74991 32.47ZM24.75 37.5C25.1642 37.5 25.5 37.8358 25.5 38.25V39.75C25.5 40.1642 25.1642 40.5 24.75 40.5C24.3358 40.5 24 40.1642 24 39.75V38.25C24 37.8358 24.3358 37.5 24.75 37.5ZM29.9993 15.8348L12.609 24.3525L13.854 27.0923L29.6526 18.8353L29.681 18.8212L29.6932 18.8152L29.7028 18.8113L29.7105 18.8077L29.754 18.7914C29.7674 18.7868 29.7807 18.7826 29.7941 18.7788C29.8005 18.7768 29.8073 18.775 29.8141 18.7732L29.8396 18.7673C29.8515 18.7647 29.8634 18.7624 29.8755 18.7604C29.8854 18.7585 29.8949 18.7571 29.9045 18.7559L29.9219 18.754C29.9334 18.7528 29.945 18.7518 29.9565 18.7511L29.9685 18.7505L30.0198 18.7501L30.0375 18.7508C30.0518 18.7515 30.0661 18.7527 30.0803 18.7542C30.0832 18.7546 30.0867 18.755 30.0902 18.7554C30.1046 18.7571 30.1144 18.7585 30.1242 18.7601C30.1312 18.7615 30.1379 18.7627 30.1446 18.764L30.1581 18.7667L30.1686 18.769C30.1719 18.7699 30.1756 18.7708 30.1793 18.7717C30.1929 18.775 30.2 18.777 30.207 18.779C30.2126 18.7807 30.2184 18.7825 30.2243 18.7843L30.246 18.7914L30.2972 18.8113L30.3105 18.8175L30.3235 18.8233L30.3474 18.8353L46.146 27.0923L47.391 24.3525L29.9993 15.8348Z" fill="#000091"/>
</svg>
