<svg width="29" height="30" viewBox="0 0 29 30" fill="none" xmlns="http://www.w3.org/2000/svg">
<path fill-rule="evenodd" clip-rule="evenodd" d="M15 27V29H9V27H15ZM12 8C16.4183 8 20 11.5817 20 16V23H22V25H2V23H4V16C4 11.5817 7.58172 8 12 8ZM12 10C8.68629 10 6 12.6863 6 16V23H18V16C18 12.6863 15.3137 10 12 10Z" fill="#000091"/>
<rect x="13" width="16" height="16" rx="8" fill="#E1000F"/>
<path d="M21.999 4.15283V12H20.7046V5.68896L18.7871 6.33887V5.27002L21.8433 4.15283H21.999Z" fill="white"/>
</svg>
