<svg width="120" height="120" viewBox="0 0 120 120" fill="none" xmlns="http://www.w3.org/2000/svg">
<path fill-rule="evenodd" clip-rule="evenodd" d="M112.5 93C111.673 93 111 92.3271 111 91.5C111 90.6728 111.673 90 112.5 90C113.327 90 114 90.6728 114 91.5C114 92.3271 113.327 93 112.5 93Z" fill="#ECECFE"/>
<path fill-rule="evenodd" clip-rule="evenodd" d="M88.5 9C87.6729 9 87 8.3271 87 7.5C87 6.67283 87.6729 6 88.5 6C89.3271 6 90 6.67283 90 7.5C90 8.3271 89.3271 9 88.5 9Z" fill="#ECECFE"/>
<path fill-rule="evenodd" clip-rule="evenodd" d="M15 102C14.1729 102 13.5 101.327 13.5 100.5C13.5 99.6728 14.1729 99 15 99C15.8271 99 16.5 99.6728 16.5 100.5C16.5 101.327 15.8271 102 15 102Z" fill="#ECECFE"/>
<path d="M18 39C18 39.8271 18.6729 40.5 19.5 40.5C20.3271 40.5 21 39.8271 21 39C21 38.1728 20.3271 37.5 19.5 37.5C18.6729 37.5 18 38.1728 18 39Z" fill="#E1000F"/>
<path d="M24 40.5C23.1729 40.5 22.5 39.8271 22.5 39C22.5 38.1728 23.1729 37.5 24 37.5C24.8271 37.5 25.5 38.1728 25.5 39C25.5 39.8271 24.8271 40.5 24 40.5Z" fill="#E1000F"/>
<path d="M27 39C27 39.8271 27.6729 40.5 28.5 40.5C29.3271 40.5 30 39.8271 30 39C30 38.1728 29.3271 37.5 28.5 37.5C27.6729 37.5 27 38.1728 27 39Z" fill="#E1000F"/>
<path fill-rule="evenodd" clip-rule="evenodd" d="M13.5 31.5H34.5C35.3284 31.5 36 32.1716 36 33V45C36 45.8284 35.3284 46.5 34.5 46.5H30V48C30 49.0564 28.9468 49.7629 27.9879 49.4103L27.8292 49.3416L22.146 46.5H13.5C12.7307 46.5 12.0967 45.9209 12.0101 45.1749L12 45V33C12 32.1716 12.6716 31.5 13.5 31.5ZM28.5 43.5H33V34.5H15V43.5H22.5C22.6747 43.5 22.8475 43.5305 23.0109 43.5897L23.1708 43.6584L27 45.573V45C27 44.2307 27.5791 43.5967 28.3251 43.5101L28.5 43.5Z" fill="#E1000F"/>
<path d="M76.5 43.5C75.6716 43.5 75 44.1716 75 45C75 45.8284 75.6716 46.5 76.5 46.5C77.3284 46.5 78 45.8284 78 45C78 44.1716 77.3284 43.5 76.5 43.5Z" fill="#E1000F"/>
<path fill-rule="evenodd" clip-rule="evenodd" d="M76.5 37.5C72.3579 37.5 69 40.8579 69 45C69 49.1421 72.3579 52.5 76.5 52.5C80.6421 52.5 84 49.1421 84 45C84 40.8579 80.6421 37.5 76.5 37.5ZM76.5 40.5C78.9853 40.5 81 42.5147 81 45C81 47.4853 78.9853 49.5 76.5 49.5C74.0147 49.5 72 47.4853 72 45C72 42.5147 74.0147 40.5 76.5 40.5Z" fill="#E1000F"/>
<path fill-rule="evenodd" clip-rule="evenodd" d="M65.9999 31.5C65.9999 25.7794 64.0323 22.5 59.9999 22.5C55.9675 22.5 53.9999 25.7794 53.9999 31.5C53.9999 31.6881 54.0345 31.868 54.0977 32.0339C45.7121 33.701 40.9586 39.3098 39.4843 49.3865L39.3463 50.4217C39.0714 52.6977 38.9536 55.1894 38.9893 57.9023L39.0002 58.5323L38.9937 59.832L39.0173 60.5424C39.051 63.4983 37.9195 67.2841 36.2709 69.64L30.4338 77.7646L30.2887 77.9919C30.02 78.4558 29.8809 78.9724 29.8809 79.5C29.8809 81.1568 31.224 82.5 32.8809 82.5L47.9999 82.5C47.9999 90.3284 52.1714 94.5 59.9999 94.5C67.8283 94.5 71.9999 90.3284 71.9999 82.5L87.1189 82.5L87.3815 82.4885C87.9041 82.4426 88.4071 82.2602 88.8393 81.9577C90.1966 81.0075 90.5267 79.137 89.5766 77.7796L83.7181 69.6248L83.4375 69.2071C81.9714 66.926 80.9975 63.8218 80.9976 61.2768L80.9993 60.0423L81.021 59.0521C81.0311 58.3982 81.0324 57.7569 81.0251 57.1279C81.0154 56.2995 80.336 55.6359 79.5077 55.6455C78.6793 55.6552 78.0156 56.3346 78.0253 57.163C78.0358 58.0659 78.0276 58.9973 78.0005 59.9577L77.9976 61.2765L78.0082 61.8078C78.1359 65.0223 79.3985 68.6936 81.2723 71.362L87.1184 79.4985L32.8809 79.5L38.7181 71.3752L38.9916 70.9687C40.9637 67.9211 42.1923 63.442 41.9976 59.9173L41.9947 59.8451L41.9995 58.4677L41.9889 57.8633C41.7625 41.2611 47.2157 34.5 59.9999 34.5C63.6502 34.5 66.6834 35.1317 69.1417 36.3883C69.8793 36.7654 70.7829 36.4731 71.16 35.7355C71.5371 34.9979 71.2448 34.0942 70.5072 33.7171C69.1014 32.9985 67.5596 32.4571 65.8797 32.0892C65.9571 31.9083 65.9999 31.7092 65.9999 31.5ZM63.0065 31.6415C63.0021 31.5949 62.9999 31.5477 62.9999 31.5C62.9999 27.2206 61.9675 25.5 59.9999 25.5C58.0323 25.5 56.9999 27.2206 56.9999 31.5C56.9999 31.5426 56.9981 31.5847 56.9946 31.6264C57.9561 31.5419 58.9577 31.5 59.9999 31.5C61.0408 31.5 62.0429 31.547 63.0065 31.6415ZM50.9999 82.5C50.9999 88.6716 53.8283 91.5 59.9999 91.5C66.1714 91.5 68.9999 88.6716 68.9999 82.5H50.9999Z" fill="#000091"/>
<path d="M59.9999 102C65.2696 102 69.8026 100.319 73.0605 97.0607C73.6463 96.4749 73.6463 95.5251 73.0605 94.9393C72.4747 94.3536 71.525 94.3536 70.9392 94.9393C68.2749 97.6037 64.5104 99 59.9999 99C59.1714 99 58.4999 99.6716 58.4999 100.5C58.4999 101.328 59.1714 102 59.9999 102Z" fill="#000091"/>
<path d="M76.4999 93C75.6728 93 74.9999 92.3271 74.9999 91.5C74.9999 90.6728 75.6728 90 76.4999 90C77.327 90 77.9999 90.6728 77.9999 91.5C77.9999 92.3271 77.327 93 76.4999 93Z" fill="#000091"/>
<path d="M100.5 52.5C101.328 52.5 102 53.1716 102 54C102 54.7693 101.421 55.4033 100.675 55.4899L100.5 55.5H94.4999C93.6715 55.5 92.9999 54.8284 92.9999 54C92.9999 53.2307 93.5789 52.5967 94.3249 52.5101L94.4999 52.5H100.5Z" fill="#000091"/>
<path fill-rule="evenodd" clip-rule="evenodd" d="M88.4999 46.5H106.5C107.328 46.5 108 47.1716 108 48V60L107.99 60.1749C107.903 60.9209 107.269 61.5 106.5 61.5H100.854L95.1707 64.3416L95.012 64.4103C94.0531 64.7629 92.9999 64.0564 92.9999 63V61.5H88.4999C87.6715 61.5 86.9999 60.8284 86.9999 60V48C86.9999 47.1716 87.6715 46.5 88.4999 46.5ZM89.9999 49.5V58.5H94.4999L94.6748 58.5101C95.4208 58.5967 95.9999 59.2307 95.9999 60V60.573L99.8291 58.6584L99.989 58.5897C100.152 58.5305 100.325 58.5 100.5 58.5H105V49.5H89.9999Z" fill="#000091"/>
</svg>
