<svg width="40" height="40" viewBox="0 0 40 40" fill="none" xmlns="http://www.w3.org/2000/svg">
<path d="M13.24 38.2222H1.77778V26.6311C1.77778 26.3953 1.68413 26.1692 1.51743 26.0025C1.35073 25.8358 1.12464 25.7422 0.888889 25.7422C0.653141 25.7422 0.427048 25.8358 0.260349 26.0025C0.0936505 26.1692 0 26.3953 0 26.6311V39.1111C0 39.3468 0.0936505 39.5729 0.260349 39.7396C0.427048 39.9063 0.653141 40 0.888889 40H13.24C13.4757 40 13.7018 39.9063 13.8685 39.7396C14.0352 39.5729 14.1289 39.3468 14.1289 39.1111C14.1289 38.8753 14.0352 38.6492 13.8685 38.4825C13.7018 38.3158 13.4757 38.2222 13.24 38.2222Z" fill="#000091"/>
<path d="M39.1112 25.7422C38.8754 25.7422 38.6493 25.8358 38.4826 26.0025C38.3159 26.1692 38.2223 26.3953 38.2223 26.6311V38.2222H26.5912C26.3554 38.2222 26.1293 38.3158 25.9626 38.4825C25.7959 38.6492 25.7023 38.8753 25.7023 39.1111C25.7023 39.3468 25.7959 39.5729 25.9626 39.7396C26.1293 39.9063 26.3554 40 26.5912 40H39.1112C39.3469 40 39.573 39.9063 39.7397 39.7396C39.9064 39.5729 40 39.3468 40 39.1111V26.6311C40 26.3953 39.9064 26.1692 39.7397 26.0025C39.573 25.8358 39.3469 25.7422 39.1112 25.7422Z" fill="#000091"/>
<path d="M39.1111 0H26.6933C26.4576 0 26.2315 0.0936505 26.0648 0.260349C25.8981 0.427048 25.8044 0.653141 25.8044 0.888889C25.8044 1.12464 25.8981 1.35073 26.0648 1.51743C26.2315 1.68413 26.4576 1.77778 26.6933 1.77778H38.2222V13.1822C38.2222 13.418 38.3159 13.6441 38.4826 13.8108C38.6493 13.9775 38.8754 14.0711 39.1111 14.0711C39.3469 14.0711 39.5729 13.9775 39.7396 13.8108C39.9063 13.6441 40 13.418 40 13.1822V0.888889C40 0.653141 39.9063 0.427048 39.7396 0.260349C39.5729 0.0936505 39.3469 0 39.1111 0Z" fill="#000091"/>
<path d="M0.888889 14.2222C1.12464 14.2222 1.35073 14.1286 1.51743 13.9619C1.68413 13.7952 1.77778 13.5691 1.77778 13.3333V1.77778H13.2933C13.5291 1.77778 13.7552 1.68413 13.9219 1.51743C14.0886 1.35073 14.1822 1.12464 14.1822 0.888889C14.1822 0.653141 14.0886 0.427048 13.9219 0.260349C13.7552 0.0936505 13.5291 0 13.2933 0H0.888889C0.653141 0 0.427048 0.0936505 0.260349 0.260349C0.0936505 0.427048 0 0.653141 0 0.888889V13.3333C0 13.5691 0.0936505 13.7952 0.260349 13.9619C0.427048 14.1286 0.653141 14.2222 0.888889 14.2222Z" fill="#000091"/>
<path d="M6.22217 6.66667V13.7778C6.22217 14.0135 6.31582 14.2396 6.48252 14.4063C6.64922 14.573 6.87531 14.6667 7.11106 14.6667H14.2222C14.4579 14.6667 14.684 14.573 14.8507 14.4063C15.0174 14.2396 15.1111 14.0135 15.1111 13.7778V6.66667C15.1111 6.43093 15.0174 6.20483 14.8507 6.03814C14.684 5.87144 14.4579 5.77779 14.2222 5.77779H7.11106C6.87531 5.77779 6.64922 5.87144 6.48252 6.03814C6.31582 6.20483 6.22217 6.43093 6.22217 6.66667ZM7.99995 7.55556H13.3333V12.8889H7.99995V7.55556Z" fill="#000091"/>
<path d="M25.7778 14.6667H32.8889C33.1247 14.6667 33.3508 14.573 33.5175 14.4063C33.6842 14.2396 33.7778 14.0135 33.7778 13.7778V6.66667C33.7778 6.43093 33.6842 6.20483 33.5175 6.03814C33.3508 5.87144 33.1247 5.77779 32.8889 5.77779H25.7778C25.5421 5.77779 25.316 5.87144 25.1493 6.03814C24.9826 6.20483 24.8889 6.43093 24.8889 6.66667V13.7778C24.8889 14.0135 24.9826 14.2396 25.1493 14.4063C25.316 14.573 25.5421 14.6667 25.7778 14.6667ZM26.6667 7.55556H32V12.8889H26.6667V7.55556Z" fill="#000091"/>
<path d="M14.2222 25.3334H7.11106C6.87531 25.3334 6.64922 25.427 6.48252 25.5937C6.31582 25.7604 6.22217 25.9865 6.22217 26.2222V33.3333C6.22217 33.5691 6.31582 33.7952 6.48252 33.9619C6.64922 34.1286 6.87531 34.2222 7.11106 34.2222H14.2222C14.4579 34.2222 14.684 34.1286 14.8507 33.9619C15.0174 33.7952 15.1111 33.5691 15.1111 33.3333V26.2222C15.1111 25.9865 15.0174 25.7604 14.8507 25.5937C14.684 25.427 14.4579 25.3334 14.2222 25.3334ZM13.3333 32.4445H7.99995V27.1111H13.3333V32.4445Z" fill="#000091"/>
<path d="M12.4445 8.44444H8.88892V12H12.4445V8.44444Z" fill="#000091"/>
<path d="M12.4445 28H8.88892V31.5556H12.4445V28Z" fill="#000091"/>
<path d="M31.1111 8.44444H27.5555V12H31.1111V8.44444Z" fill="#000091"/>
<path d="M20 12.8889H18.2222V11.1111H16.4445V12.8889V14.6667H18.2222H20H21.7778V12.8889H20Z" fill="#000091"/>
<path d="M14.6667 16.4444H12.8889V18.2222H14.6667V16.4444Z" fill="#000091"/>
<path d="M16.4444 18.2222H14.6666V20H16.4444V18.2222Z" fill="#000091"/>
<path d="M18.2222 16.4444H16.4445V18.2222H18.2222H20V16.4444H18.2222Z" fill="#000091"/>
<path d="M21.7778 18.2222H20V20H21.7778V18.2222Z" fill="#000091"/>
<path d="M12.8889 21.7778V23.5556H14.6667V21.7778V20H12.8889V21.7778Z" fill="#000091"/>
<path d="M19.9999 20H18.2222V21.7778H19.9999V20Z" fill="#000091"/>
<path d="M18.2222 21.7778H16.4445V23.5556H18.2222V21.7778Z" fill="#000091"/>
<path d="M5.77783 21.7778V23.5556H7.55561H9.33339V21.7778H7.55561H5.77783Z" fill="#000091"/>
<path d="M32.4444 16.4444H30.6666V18.2222H32.4444V16.4444Z" fill="#000091"/>
<path d="M30.6666 32.4444V34.2222H32.4444H34.2222V32.4444H32.4444V30.6666H30.6666V32.4444Z" fill="#000091"/>
<path d="M25.3334 18.2222V16.4444H23.5556V14.6666H21.7778V16.4444V18.2222H23.5556H25.3334Z" fill="#000091"/>
<path d="M23.5556 25.3334H21.7778V27.1111H23.5556V25.3334Z" fill="#000091"/>
<path d="M21.7778 27.1111H20V28.8889H21.7778V27.1111Z" fill="#000091"/>
<path d="M19.9999 28.8889H18.2222V30.6666H19.9999V28.8889Z" fill="#000091"/>
<path d="M20 23.5556H18.2222V25.3333H16.4445V27.1111H18.2222H20V25.3333V23.5556Z" fill="#000091"/>
<path d="M21.7778 21.7778H20V23.5556H21.7778V21.7778Z" fill="#000091"/>
<path d="M34.2222 18.2222H32.4445V20H34.2222V18.2222Z" fill="#000091"/>
<path d="M32.4444 20H30.6666V21.7778H32.4444V20Z" fill="#000091"/>
<path d="M34.2222 21.7778H32.4445V23.5556H34.2222V21.7778Z" fill="#000091"/>
<path d="M21.7778 12.8889H23.5556V11.1111V9.33335H21.7778V11.1111V12.8889Z" fill="#000091"/>
<path d="M19.9999 9.33335H18.2222V11.1111H19.9999V9.33335Z" fill="#000091"/>
<path d="M19.9999 32.4444H18.2222V34.2222H19.9999V32.4444Z" fill="#000091"/>
<path d="M18.2222 30.6666H16.4445V32.4444H18.2222V30.6666Z" fill="#000091"/>
<path d="M21.7777 7.55556V5.77779H19.9999H18.2222V7.55556H19.9999V9.33334H21.7777V7.55556Z" fill="#000091"/>
<path d="M25.3333 23.5556H23.5555V25.3333H25.3333V23.5556Z" fill="#000091"/>
<path d="M25.3333 28.8889H23.5556V30.6666H21.7778H20V32.4444H21.7778V34.2222H23.5556V32.4444H25.3333V30.6666V28.8889Z" fill="#000091"/>
<path d="M28.8889 28.8889H27.1111V30.6666V32.4444H28.8889V30.6666H30.6666V28.8889H28.8889Z" fill="#000091"/>
<path d="M27.1112 21.7778H25.3334V23.5556H27.1112V21.7778Z" fill="#000091"/>
<path d="M25.3333 20H23.5555V21.7778H25.3333V20Z" fill="#000091"/>
<path d="M28.8889 20V18.2222V16.4444H27.1111V18.2222V20V21.7778H28.8889V20Z" fill="#000091"/>
<path d="M7.55561 18.2222H5.77783V20H7.55561V18.2222Z" fill="#000091"/>
<path d="M27.1112 32.4444H25.3334V34.2222H27.1112V32.4444Z" fill="#000091"/>
<path d="M32.4445 30.6667H34.2222V28.8889V27.1111H32.4445V28.8889V30.6667Z" fill="#000091"/>
<path d="M11.1111 18.2222V16.4444H9.33332H7.55554V18.2222H9.33332V20V21.7778H11.1111V20H12.8889V18.2222H11.1111Z" fill="#000091"/>
<path d="M27.1111 23.5556V25.3333H28.8889V27.1111H30.6666H32.4444V25.3333H30.6666V23.5556V21.7778H28.8889V23.5556H27.1111Z" fill="#000091"/>
<path d="M27.1112 25.3334H25.3334V27.1111V28.8889H27.1112V27.1111V25.3334Z" fill="#000091"/>
</svg>
