<svg width="20" height="20" viewBox="0 0 20 20" fill="none" xmlns="http://www.w3.org/2000/svg">
<path fill-rule="evenodd" clip-rule="evenodd" d="M1.34 14.9998C0.91727 14.2688 0.588664 13.4873 0.362 12.6738C1.36787 12.1622 2.00155 11.1294 2.00197 10.0009C2.00239 8.87244 1.36949 7.83917 0.364 7.32682C0.816035 5.69231 1.67673 4.19977 2.865 2.98982C3.81131 3.60505 5.02285 3.63706 6.00033 3.07266C6.9778 2.50825 7.55576 1.44296 7.496 0.315823C9.13811 -0.108555 10.8612 -0.107867 12.503 0.317823C12.4438 1.44494 13.0222 2.50991 13.9998 3.07388C14.9775 3.63786 16.189 3.60537 17.135 2.98982C17.714 3.57982 18.228 4.25082 18.66 4.99982C19.093 5.74882 19.417 6.52982 19.638 7.32582C18.6321 7.83742 17.9984 8.87021 17.998 9.99871C17.9976 11.1272 18.6305 12.1605 19.636 12.6728C19.184 14.3073 18.3233 15.7999 17.135 17.0098C16.1887 16.3946 14.9771 16.3626 13.9997 16.927C13.0222 17.4914 12.4442 18.5567 12.504 19.6838C10.8619 20.1082 9.13877 20.1075 7.497 19.6818C7.55623 18.5547 6.97783 17.4897 6.00017 16.9258C5.02251 16.3618 3.81104 16.3943 2.865 17.0098C2.27399 16.4068 1.76159 15.7314 1.34 14.9998ZM7 15.1958C8.06563 15.8105 8.86684 16.7968 9.25 17.9658C9.749 18.0128 10.25 18.0138 10.749 17.9668C11.1324 16.7977 11.934 15.8113 13 15.1968C14.0652 14.5805 15.3205 14.3793 16.525 14.6318C16.815 14.2238 17.065 13.7888 17.273 13.3338C16.4524 12.4173 15.9991 11.23 16 9.99982C16 8.73982 16.47 7.56282 17.273 6.66582C17.0635 6.21097 16.8125 5.77646 16.523 5.36782C15.3193 5.62013 14.0648 5.4193 13 4.80382C11.9344 4.18919 11.1332 3.20281 10.75 2.03382C10.251 1.98682 9.75 1.98582 9.251 2.03282C8.8676 3.20197 8.066 4.18838 7 4.80282C5.93478 5.41914 4.67948 5.62034 3.475 5.36782C3.18556 5.77611 2.93513 6.21068 2.727 6.66582C3.54757 7.58238 4.00088 8.76961 4 9.99982C4 11.2598 3.53 12.4368 2.727 13.3338C2.93647 13.7887 3.18754 14.2232 3.477 14.6318C4.68072 14.3795 5.93521 14.5803 7 15.1958ZM10 12.9998C8.34315 12.9998 7 11.6567 7 9.99982C7 8.34297 8.34315 6.99982 10 6.99982C11.6569 6.99982 13 8.34297 13 9.99982C13 11.6567 11.6569 12.9998 10 12.9998ZM10 10.9998C10.5523 10.9998 11 10.5521 11 9.99982C11 9.44754 10.5523 8.99982 10 8.99982C9.44771 8.99982 9 9.44754 9 9.99982C9 10.5521 9.44771 10.9998 10 10.9998Z" fill="#000091"/>
</svg>
