<svg width="100" height="100" viewBox="0 0 100 100" fill="none" xmlns="http://www.w3.org/2000/svg">
<path fill-rule="evenodd" clip-rule="evenodd" d="M85 16.25C84.3107 16.25 83.75 15.6893 83.75 15C83.75 14.3107 84.3107 13.75 85 13.75C85.6893 13.75 86.25 14.3107 86.25 15C86.25 15.6893 85.6893 16.25 85 16.25Z" fill="#ECECFE"/>
<path fill-rule="evenodd" clip-rule="evenodd" d="M51.25 95C50.5607 95 50 94.4393 50 93.75C50 93.0607 50.5607 92.5 51.25 92.5C51.9393 92.5 52.5 93.0607 52.5 93.75C52.5 94.4393 51.9393 95 51.25 95Z" fill="#ECECFE"/>
<path fill-rule="evenodd" clip-rule="evenodd" d="M18.75 12.5C18.0607 12.5 17.5 11.9393 17.5 11.25C17.5 10.5607 18.0607 10 18.75 10C19.4393 10 20 10.5607 20 11.25C20 11.9393 19.4393 12.5 18.75 12.5Z" fill="#ECECFE"/>
<path d="M20 27.5C19.3107 27.5 18.75 26.9393 18.75 26.25C18.75 25.5607 19.3107 25 20 25C20.6893 25 21.25 25.5607 21.25 26.25C21.25 26.9393 20.6893 27.5 20 27.5Z" fill="#E1000F"/>
<path d="M25 27.5C24.3107 27.5 23.75 26.9393 23.75 26.25C23.75 25.5607 24.3107 25 25 25C25.6893 25 26.25 25.5607 26.25 26.25C26.25 26.9393 25.6893 27.5 25 27.5Z" fill="#E1000F"/>
<path d="M28.75 26.25C28.75 26.9393 29.3107 27.5 30 27.5C30.6893 27.5 31.25 26.9393 31.25 26.25C31.25 25.5607 30.6893 25 30 25C29.3107 25 28.75 25.5607 28.75 26.25Z" fill="#E1000F"/>
<path d="M77.5 25C78.1904 25 78.75 25.5596 78.75 26.25C78.75 26.891 78.2675 27.4194 77.6458 27.4916L77.5 27.5H40C39.3096 27.5 38.75 26.9404 38.75 26.25C38.75 25.609 39.2325 25.0806 39.8542 25.0084L40 25H77.5Z" fill="#E1000F"/>
<path fill-rule="evenodd" clip-rule="evenodd" d="M64.1155 62.1332C63.8812 62.6228 63.75 63.1711 63.75 63.75C63.75 65.8211 65.4289 67.5 67.5 67.5C69.5711 67.5 71.25 65.8211 71.25 63.75C71.25 62.9811 71.0186 62.2662 70.6216 61.6712L76 54.5L76.0863 54.3687C76.3944 53.8294 76.2598 53.1324 75.75 52.75C75.1977 52.3358 74.4142 52.4477 74 53L68.622 60.1707C68.2677 60.0598 67.8908 60 67.5 60C66.9211 60 66.3728 60.1312 65.8832 60.3655L63.3839 57.8661L63.2661 57.7621C62.7758 57.3809 62.0667 57.4155 61.6161 57.8661C61.128 58.3543 61.128 59.1457 61.6161 59.6339L64.1155 62.1332ZM67.5 62.5C68.1904 62.5 68.75 63.0596 68.75 63.75C68.75 64.4404 68.1904 65 67.5 65C66.8096 65 66.25 64.4404 66.25 63.75C66.25 63.0596 66.8096 62.5 67.5 62.5Z" fill="#E1000F"/>
<path d="M83.7416 21.1042C83.6694 20.4826 83.141 20 82.5 20H15L14.8542 20.0084C14.2326 20.0806 13.75 20.609 13.75 21.25V78.75L13.7584 78.8958C13.8306 79.5175 14.359 80 15 80H45L45.1458 79.9916C45.7675 79.9194 46.25 79.391 46.25 78.75L46.2416 78.6042C46.1694 77.9825 45.641 77.5 45 77.5H16.25V32.5H62.5L62.6458 32.4916C63.2675 32.4194 63.75 31.891 63.75 31.25C63.75 30.5596 63.1904 30 62.5 30H16.25V22.5H81.25V41.25L81.2584 41.3958C81.3306 42.0175 81.859 42.5 82.5 42.5C83.1904 42.5 83.75 41.9404 83.75 41.25V21.25L83.7416 21.1042Z" fill="#000091"/>
<path d="M88.75 63.75C88.75 52.014 79.236 42.5 67.5 42.5C55.764 42.5 46.25 52.014 46.25 63.75C46.25 74.5261 54.2713 83.4288 64.6688 84.813L64.1161 85.3661L64.0121 85.4839C63.6308 85.9742 63.6655 86.6833 64.1161 87.1339C64.6043 87.622 65.3957 87.622 65.8839 87.1339L68.3839 84.6339C68.4206 84.5971 68.4551 84.5581 68.4871 84.517C68.5568 84.4274 68.6134 84.3295 68.6553 84.2282C68.7085 84.0997 68.741 83.9603 68.7484 83.8143C68.7495 83.793 68.75 83.7716 68.75 83.75C68.75 83.5815 68.7167 83.4209 68.6563 83.2742C68.5952 83.1258 68.5045 82.9867 68.3839 82.8661L65.8839 80.3661L65.7661 80.2621C65.2758 79.8808 64.5667 79.9155 64.1161 80.3661L64.0121 80.4839C63.6308 80.9742 63.6655 81.6833 64.1161 82.1339L64.1912 82.209C55.4139 80.6462 48.75 72.9763 48.75 63.75C48.75 53.3947 57.1447 45 67.5 45C77.8553 45 86.25 53.3947 86.25 63.75C86.25 68.1237 84.7493 72.264 82.0444 75.5841C81.6084 76.1193 81.6888 76.9067 82.224 77.3427C82.7592 77.7788 83.5466 77.6984 83.9826 77.1632C87.0477 73.401 88.75 68.7043 88.75 63.75Z" fill="#000091"/>
<path d="M80.7827 80.338C81.3214 79.9062 81.4079 79.1195 80.9761 78.5808C80.5443 78.0422 79.7576 77.9556 79.219 78.3875C78.4816 78.9786 77.7009 79.5135 76.8834 79.987C76.286 80.333 76.0822 81.0978 76.4282 81.6952C76.7743 82.2925 77.539 82.4963 78.1364 82.1503C79.0629 81.6137 79.9475 81.0077 80.7827 80.338Z" fill="#000091"/>
<path d="M70.2781 50.281C69.3703 50.0947 68.4409 50 67.5 50C59.9061 50 53.75 56.1561 53.75 63.75C53.75 71.3439 59.9061 77.5 67.5 77.5C75.0939 77.5 81.25 71.3439 81.25 63.75C81.25 61.8551 80.8658 60.0118 80.1305 58.3076C79.857 57.6737 79.1215 57.3815 78.4876 57.655C77.8537 57.9284 77.5616 58.664 77.835 59.2979C78.436 60.6908 78.75 62.1973 78.75 63.75C78.75 69.9632 73.7132 75 67.5 75C61.2868 75 56.25 69.9632 56.25 63.75C56.25 57.5368 61.2868 52.5 67.5 52.5C68.2718 52.5 69.0328 52.5775 69.7754 52.73C70.4517 52.8688 71.1124 52.4331 71.2512 51.7569C71.3901 51.0806 70.9544 50.4199 70.2781 50.281Z" fill="#000091"/>
<path d="M47.5 40C48.1904 40 48.75 40.5596 48.75 41.25C48.75 41.891 48.2675 42.4194 47.6458 42.4916L47.5 42.5H25C24.3096 42.5 23.75 41.9404 23.75 41.25C23.75 40.609 24.2325 40.0806 24.8542 40.0084L25 40H47.5Z" fill="#000091"/>
<path d="M43.75 48.75C43.75 48.0596 43.1904 47.5 42.5 47.5H25L24.8542 47.5084C24.2325 47.5806 23.75 48.109 23.75 48.75C23.75 49.4404 24.3096 50 25 50H42.5L42.6458 49.9916C43.2675 49.9194 43.75 49.391 43.75 48.75Z" fill="#000091"/>
<path d="M40 55C40.6904 55 41.25 55.5596 41.25 56.25C41.25 56.891 40.7675 57.4194 40.1458 57.4916L40 57.5H25C24.3096 57.5 23.75 56.9404 23.75 56.25C23.75 55.609 24.2325 55.0806 24.8542 55.0084L25 55H40Z" fill="#000091"/>
</svg>
