<svg width="80" height="80" viewBox="0 0 80 80" fill="none" xmlns="http://www.w3.org/2000/svg">
<g clip-path="url(#clip0_5613_2734)">
<path d="M7.3501 44.99V17.46H29.9801V29.34C30.6201 29.02 31.2901 28.75 31.9801 28.53V16.46C31.9801 15.91 31.5301 15.46 30.9801 15.46H6.3501C5.8001 15.46 5.3501 15.91 5.3501 16.46V46C5.3501 46.55 5.8001 47 6.3501 47H23.3301C23.0701 46.36 22.8601 45.69 22.6901 45H7.3501V44.99Z" fill="#000091"/>
<path d="M17.22 24.1801H27.2C27.75 24.1801 28.2 23.7301 28.2 23.1801C28.2 22.6301 27.75 22.1801 27.2 22.1801H17.22C16.67 22.1801 16.22 22.6301 16.22 23.1801C16.22 23.7301 16.67 24.1801 17.22 24.1801Z" fill="#000091"/>
<path d="M10.5599 24.89C10.7399 25.12 11.0099 25.26 11.2999 25.27C11.5899 25.28 11.8699 25.17 12.0699 24.96L14.5899 22.29C14.9699 21.89 14.9499 21.25 14.5499 20.88C14.1499 20.5 13.5099 20.52 13.1399 20.92L12.0599 22.07L11.4199 22.75L11.0799 22.32L10.8099 21.97C10.4699 21.54 9.83989 21.46 9.40989 21.8C8.97989 22.14 8.89989 22.77 9.23989 23.2L10.5699 24.89H10.5599Z" fill="#E1000F"/>
<path d="M27.25 27.79H17.27C16.72 27.79 16.27 28.24 16.27 28.79C16.27 29.34 16.72 29.79 17.27 29.79H27.25C27.8 29.79 28.25 29.34 28.25 28.79C28.25 28.24 27.8 27.79 27.25 27.79Z" fill="#000091"/>
<path d="M13.1899 26.52L12.1099 27.67L11.4699 28.34L11.1399 27.91L10.8699 27.56C10.5299 27.13 9.89995 27.05 9.46995 27.39C9.03995 27.73 8.95995 28.36 9.29995 28.79L10.6199 30.48C10.7999 30.71 11.0699 30.85 11.3599 30.86C11.6499 30.87 11.9299 30.76 12.1299 30.55L14.6499 27.88C15.0299 27.48 15.0099 26.84 14.6099 26.47C14.2099 26.09 13.5699 26.11 13.1999 26.51L13.1899 26.52Z" fill="#E1000F"/>
<path d="M16.27 34.38C16.27 34.93 16.72 35.38 17.27 35.38H23.82C24.18 34.67 24.61 34.01 25.09 33.38H17.28C16.73 33.38 16.28 33.83 16.28 34.38H16.27Z" fill="#000091"/>
<path d="M13.1899 32.1201L12.1099 33.2701L11.4699 33.9401L11.1399 33.5101L10.8699 33.1601C10.5299 32.7301 9.89995 32.6501 9.46995 32.9901C9.03995 33.3301 8.95995 33.9601 9.29995 34.3901L10.6199 36.0801C10.7999 36.3101 11.0699 36.4501 11.3599 36.4601C11.6499 36.4701 11.9299 36.3601 12.1299 36.1501L14.6499 33.4801C15.0299 33.0801 15.0099 32.4401 14.6099 32.0701C14.2099 31.6901 13.5699 31.7101 13.1999 32.1101L13.1899 32.1201Z" fill="#E1000F"/>
<path d="M16.27 39.98C16.27 40.53 16.72 40.98 17.27 40.98H22.31C22.35 40.3 22.41 39.63 22.54 38.98H17.26C16.71 38.98 16.26 39.43 16.26 39.98H16.27Z" fill="#000091"/>
<path d="M13.1899 37.72L12.1099 38.87L11.4699 39.55L11.1299 39.12L10.8599 38.77C10.5199 38.34 9.88994 38.26 9.45994 38.6C9.02994 38.94 8.94994 39.57 9.28994 40L10.6099 41.69C10.7899 41.92 11.0599 42.06 11.3499 42.07C11.6399 42.08 11.9199 41.97 12.1199 41.76L14.6399 39.09C15.0199 38.69 14.9999 38.05 14.5999 37.68C14.1999 37.3 13.5599 37.32 13.1899 37.72Z" fill="#E1000F"/>
<path d="M53.1299 15.75C53.1299 15.75 53.0999 15.75 53.0699 15.75C52.9599 15.75 52.8099 15.75 52.6199 15.76C52.2399 15.78 51.6999 15.82 51.0499 15.92C49.7599 16.12 48.0299 16.55 46.2899 17.47C44.5399 18.4 42.7799 19.83 41.4599 22.03C40.4499 23.71 39.7199 25.8 39.4399 28.4C40.1099 28.58 40.7599 28.79 41.3899 29.06C41.6099 26.51 42.2799 24.55 43.1799 23.06C44.2799 21.23 45.7499 20.03 47.2299 19.24C48.7199 18.45 50.2199 18.07 51.3499 17.9C51.9199 17.81 52.3799 17.78 52.7099 17.76C52.8699 17.76 52.9999 17.76 53.0799 17.76C53.0999 17.76 53.1099 17.76 53.1299 17.76C53.0099 17.45 52.9399 17.11 52.9399 16.76C52.9399 16.41 53.0099 16.07 53.1299 15.76V15.75Z" fill="#000091"/>
<path d="M68.29 15.75H58.28C58.4 16.06 58.47 16.4 58.47 16.75C58.47 17.1 58.4 17.44 58.28 17.75H68.43C68.31 17.31 68.23 16.86 68.23 16.38C68.23 16.16 68.27 15.96 68.29 15.75Z" fill="#000091"/>
<path d="M38.2801 55.68C37.6401 57.3 36.6201 58.88 35.0401 60.05C33.4601 61.22 31.2401 62.04 28.0801 62.04H25.8601C25.9801 62.35 26.0501 62.69 26.0501 63.05C26.0501 63.41 25.9801 63.73 25.8601 64.04H28.0801C31.6101 64.04 34.2601 63.12 36.2301 61.66C38.1901 60.21 39.4001 58.29 40.1401 56.42C40.3801 55.82 40.5601 55.22 40.7101 54.63C39.9701 54.9 39.2101 55.12 38.4201 55.26C38.3701 55.4 38.3301 55.54 38.2801 55.68Z" fill="#000091"/>
<path d="M20.7201 62.04H11.6101C11.6701 62.37 11.7101 62.7 11.7101 63.05C11.7101 63.4 11.6701 63.72 11.6101 64.04H20.7201C20.6001 63.73 20.5301 63.4 20.5301 63.05C20.5301 62.7 20.6001 62.36 20.7201 62.04Z" fill="#000091"/>
<path d="M11.6 62.04C11.13 59.55 8.97 57.66 6.35 57.66C3.39 57.66 1 60.08 1 63.04C1 66.01 3.39 68.42 6.35 68.42C8.97 68.42 11.14 66.52 11.6 64.03C11.66 63.71 11.7 63.38 11.7 63.04C11.7 62.7 11.66 62.36 11.6 62.03V62.04ZM6.35 66.42C4.51 66.42 3 64.91 3 63.04C3 61.16 4.51 59.66 6.35 59.66C8.19 59.66 9.7 61.17 9.7 63.04C9.7 64.92 8.19 66.42 6.35 66.42Z" fill="#000091"/>
<path d="M73.58 11C70.83 11 68.6 13.09 68.29 15.75C68.27 15.96 68.23 16.16 68.23 16.38C68.23 16.86 68.31 17.31 68.43 17.75C69.03 20.05 71.1 21.76 73.58 21.76C76.54 21.76 78.93 19.34 78.93 16.38C78.93 13.41 76.54 11 73.58 11ZM73.58 19.77C71.74 19.77 70.23 18.26 70.23 16.39C70.23 14.51 71.74 13.01 73.58 13.01C75.42 13.01 76.93 14.52 76.93 16.39C76.93 18.27 75.42 19.77 73.58 19.77Z" fill="#000091"/>
<path d="M35.97 27.9399C34.58 27.9399 33.24 28.1499 31.98 28.5399C31.29 28.7499 30.62 29.0299 29.98 29.3499C28.05 30.2999 26.38 31.6899 25.09 33.3899C24.61 34.0199 24.19 34.6799 23.82 35.3899C23.24 36.5099 22.81 37.7199 22.55 38.9899C22.42 39.6399 22.35 40.3099 22.32 40.9899C22.31 41.2299 22.28 41.4799 22.28 41.7199C22.28 42.8499 22.43 43.9499 22.69 44.9999C22.86 45.6899 23.06 46.3599 23.33 46.9999C25.39 51.9899 30.27 55.4999 35.97 55.4999C36.81 55.4999 37.62 55.4099 38.42 55.2699C39.21 55.1299 39.97 54.9099 40.71 54.6399C41.36 54.3999 41.99 54.1199 42.59 53.7799L42.03 53.2199L43.45 51.8099L44.28 52.6499C45.23 51.9099 46.08 51.0599 46.81 50.0999L45.97 49.2499L47.39 47.8399L47.94 48.3899C49.03 46.4099 49.65 44.1399 49.65 41.7199C49.65 36.0499 46.25 31.1799 41.38 29.0699C40.75 28.7999 40.1 28.5799 39.43 28.4099C38.32 28.1199 37.16 27.9499 35.96 27.9499L35.97 27.9399ZM47.66 41.7199C47.66 48.2299 42.42 53.4999 35.97 53.4999C29.52 53.4999 24.28 48.2299 24.28 41.7199C24.28 35.2099 29.52 29.9399 35.97 29.9399C42.42 29.9399 47.66 35.2099 47.66 41.7199Z" fill="#E1000F"/>
<path d="M45.98 49.24L46.82 50.09L59.12 62.48C59.82 63.19 59.82 64.34 59.12 65.04C58.42 65.74 57.29 65.74 56.6 65.04L44.29 52.64L43.46 51.8L42.04 53.21L42.6 53.77L55.19 66.45C56.67 67.94 59.07 67.94 60.55 66.45C62.03 64.96 62.03 62.55 60.55 61.07L47.95 48.38L47.4 47.83L45.98 49.24Z" fill="#E1000F"/>
<path d="M35.4799 32.58C35.4599 33.13 35.8899 33.6 36.4399 33.62C38.8399 33.71 40.3499 34.6 41.2499 35.43C41.7099 35.85 42.0199 36.26 42.2199 36.57C42.3199 36.72 42.3899 36.84 42.4299 36.92C42.4499 36.96 42.4599 36.99 42.4699 37L42.5099 37.09C42.7499 37.54 43.2999 37.73 43.7799 37.53C44.2899 37.32 44.5299 36.73 44.3099 36.22L43.3899 36.61C44.2499 36.25 44.3099 36.22 44.3099 36.22C44.3099 36.22 44.3099 36.21 44.3099 36.2C44.3099 36.19 44.2999 36.17 44.2899 36.15C44.2699 36.11 44.2499 36.06 44.2099 35.99C44.1399 35.86 44.0399 35.68 43.9099 35.47C43.6399 35.05 43.2199 34.5 42.6199 33.95C41.3999 32.83 39.4499 31.72 36.5299 31.61C35.9799 31.59 35.5099 32.02 35.4899 32.57L35.4799 32.58Z" fill="#E1000F"/>
<path d="M58.2799 15.75C57.8799 14.71 56.8799 13.97 55.7099 13.97C54.5399 13.97 53.5399 14.71 53.1399 15.75C53.0199 16.06 52.95 16.4 52.95 16.75C52.95 17.1 53.0199 17.44 53.1399 17.75C53.5399 18.79 54.5399 19.53 55.7099 19.53C56.8799 19.53 57.8799 18.79 58.2799 17.75C58.3999 17.44 58.47 17.1 58.47 16.75C58.47 16.4 58.3999 16.06 58.2799 15.75Z" fill="#000091"/>
<path d="M25.86 62.04C25.46 61 24.46 60.26 23.29 60.26C22.12 60.26 21.12 61 20.72 62.04C20.6 62.35 20.53 62.69 20.53 63.05C20.53 63.41 20.6 63.73 20.72 64.04C21.12 65.08 22.12 65.83 23.29 65.83C24.46 65.83 25.47 65.09 25.86 64.04C25.98 63.73 26.05 63.4 26.05 63.05C26.05 62.7 25.98 62.36 25.86 62.04Z" fill="#000091"/>
</g>
<defs>
<clipPath id="clip0_5613_2734">
<rect width="77.93" height="57.42" fill="white" transform="translate(1 11)"/>
</clipPath>
</defs>
</svg>
