<svg width="20" height="19" viewBox="0 0 20 19" fill="none" xmlns="http://www.w3.org/2000/svg">
<path d="M11 6V14C11 15.6569 9.6569 17 8 17H5.82929C5.41746 18.1652 4.30622 19 3 19C1.34315 19 0 17.6569 0 16C0 14.3431 1.34315 13 3 13C4.30622 13 5.41746 13.8348 5.82929 15H8C8.5523 15 9 14.5523 9 14V6C9 4.34315 10.3431 3 12 3H15V0L20 4L15 8V5H12C11.4477 5 11 5.44772 11 6ZM3 17C3.55228 17 4 16.5523 4 16C4 15.4477 3.55228 15 3 15C2.44772 15 2 15.4477 2 16C2 16.5523 2.44772 17 3 17Z" fill="#000091"/>
</svg>
